<?xml version="1.0" encoding="utf-8"?>
<!-- Generator: Adobe Illustrator 16.0.0, SVG Export Plug-In . SVG Version: 6.00 Build 0)  -->
<!DOCTYPE svg PUBLIC "-//W3C//DTD SVG 1.1//EN" "http://www.w3.org/Graphics/SVG/1.1/DTD/svg11.dtd">
<svg version="1.1" xmlns="http://www.w3.org/2000/svg" xmlns:xlink="http://www.w3.org/1999/xlink" x="0px" y="0px"
	 width="2561.947px" height="358.082px" viewBox="0 0 2561.947 358.082" enable-background="new 0 0 2561.947 358.082"
	 xml:space="preserve">
<g id="Layer_4">
	<path fill-rule="evenodd" clip-rule="evenodd" d="M0-49V89.63l1162.12,0.072c19.73-44.726,65.333-76.033,118.474-76.033
		c53.142,0,98.745,31.307,118.476,76.033l1163.033-0.072V-49H0z"/>
	<path fill-rule="evenodd" clip-rule="evenodd" d="M1387.935,203.896c-21.912,36.309-61.738,60.578-107.257,60.578
		c-45.519,0-85.344-24.27-107.254-60.578L0,203.824l0.179,240.248l2562.102-0.168l-0.178-240.08L1387.935,203.896z"/>
</g>
<g id="_x32_5_1_">
	<rect x="1240.034" y="198.008" fill-rule="evenodd" clip-rule="evenodd" fill="#A79272" width="80.499" height="1.221"/>
	<path fill-rule="evenodd" clip-rule="evenodd" d="M1271.698,47.033h17.174c0.789,0,1.434-0.644,1.434-1.431
		c0-0.786-0.648-1.433-1.434-1.433h-17.174c-0.789,0-1.433,0.644-1.433,1.433C1270.266,46.386,1270.912,47.033,1271.698,47.033
		L1271.698,47.033z M1288.872,42.263L1288.872,42.263h-8.585h-8.589c-0.391,0-0.729-0.236-0.876-0.573l-5.687-10.425
		c-0.087-0.153-0.118-0.295-0.118-0.454c0-0.373,0.179-0.669,0.5-0.833c0.251-0.138,0.538-0.151,0.789-0.055l7.746,2.58
		l5.369-11.633c0.16-0.351,0.504-0.555,0.865-0.555c0.357,0,0.7,0.205,0.864,0.555l5.367,11.633l7.746-2.58
		c0.25-0.096,0.535-0.083,0.789,0.055c0.32,0.164,0.498,0.461,0.498,0.833c0,0.159-0.031,0.301-0.117,0.454l-5.688,10.425
		C1289.601,42.027,1289.263,42.263,1288.872,42.263z"/>
	<path fill-rule="evenodd" clip-rule="evenodd" d="M1206.788,64.017c-1.49,1.431-2.835,2.856-3.842,4.014l-1.051,1.213
		c1.486-2.971,2.401-7.126-0.938-11.62c-3.835,3.49-4.307,6.595-3.867,9.114c0.419,2.522,1.765,4.578,1.691,6.354
		c-1.15,1.506-2.266,3.035-3.343,4.595c1.152-3.12,1.685-7.316-2.113-11.465c-3.467,3.857-3.612,7.001-2.928,9.461
		c0.693,2.477,2.203,4.363,2.334,6.153c-1,1.608-1.958,3.243-2.86,4.91c0.833-3.219,0.925-7.458-3.273-11.196
		c-3.072,4.18-2.862,7.348-1.953,9.708c0.958,2.404,2.635,4.119,2.95,5.889c-0.83,1.702-1.608,3.43-2.346,5.174
		c0.52-3.276,0.146-7.522-4.388-10.801c-2.613,4.482-2.131,7.589-0.953,9.858c1.162,2.279,3.064,3.834,3.529,5.551
		c-0.645,1.782-1.25,3.578-1.801,5.393c0.151-3.326-0.598-7.487-5.473-10.302c-2.15,4.725-1.331,7.774,0.059,9.907
		c1.423,2.159,3.411,3.496,4.086,5.165c-0.474,1.835-0.881,3.686-1.241,5.548c-0.171-3.32-1.385-7.394-6.503-9.688
		c-1.654,4.921-0.52,7.868,1.079,9.85c1.608,1.995,3.782,3.129,4.58,4.715c-0.262,1.877-0.492,3.756-0.664,5.645
		c-0.515-3.284-2.113-7.21-7.451-8.965c-1.136,5.06,0.273,7.873,2.076,9.682c1.822,1.822,4.049,2.728,5.047,4.226
		c-0.1,1.891-0.115,3.783-0.104,5.68c-0.826-3.217-2.841-6.959-8.323-8.165c-0.618,5.143,1.083,7.797,3.041,9.415
		c2.001,1.627,4.306,2.307,5.445,3.697c0.096,1.893,0.271,3.779,0.469,5.666c-1.154-3.119-3.524-6.643-9.096-7.295
		c-0.11,5.182,1.848,7.658,3.972,9.07c2.135,1.424,4.534,1.859,5.786,3.131c0.308,1.87,0.638,3.735,1.047,5.584
		c-1.466-2.982-4.178-6.247-9.792-6.333c0.424,5.168,2.624,7.432,4.87,8.625c2.288,1.193,4.69,1.391,6.081,2.523
		c0.485,1.832,1.021,3.65,1.609,5.451c-1.77-2.816-4.789-5.793-10.386-5.301c0.953,5.098,3.361,7.133,5.73,8.084
		c2.394,0.953,4.8,0.904,6.306,1.889c0.66,1.773,1.401,3.518,2.155,5.258c-2.036-2.625-5.369-5.268-10.871-4.213
		c1.458,4.98,4.075,6.75,6.525,7.451c2.467,0.713,4.884,0.402,6.464,1.236c0.852,1.691,1.745,3.365,2.687,5.008
		c-2.295-2.398-5.875-4.689-11.249-3.072c1.967,4.801,4.746,6.289,7.255,6.742c2.528,0.455,4.896-0.096,6.553,0.57
		c1.027,1.59,2.07,3.17,3.184,4.707c-2.535-2.152-6.317-4.074-11.507-1.912c2.454,4.57,5.366,5.773,7.903,5.971
		c2.572,0.188,4.856-0.59,6.581-0.102c1.176,1.486,2.388,2.943,3.644,4.361c-2.742-1.883-6.695-3.408-11.639-0.734
		c2.902,4.297,5.917,5.201,8.463,5.137c2.576-0.074,4.768-1.078,6.537-0.768c1.313,1.363,2.675,2.682,4.064,3.973
		c-2.921-1.594-7.011-2.711-11.651,0.441c3.315,3.986,6.407,4.582,8.939,4.256c2.552-0.328,4.633-1.549,6.426-1.42
		c1.442,1.229,2.936,2.391,4.442,3.541c-3.055-1.301-7.254-1.982-11.544,1.617c3.697,3.637,6.839,3.91,9.322,3.328
		c2.5-0.574,4.462-2.02,6.249-2.061c1.565,1.066,3.159,2.09,4.779,3.072c-3.173-0.984-7.414-1.246-11.321,2.777
		c4.049,3.24,7.204,3.193,9.614,2.369c2.43-0.83,4.234-2.467,6.004-2.684c1.674,0.889,3.356,1.764,5.073,2.563
		c-3.263-0.646-7.5-0.486-10.985,3.922c4.363,2.807,7.497,2.439,9.807,1.379c2.34-1.084,3.957-2.873,5.705-3.289
		c1.748,0.73,3.514,1.412,5.301,2.037c-3.31-0.307-7.506,0.281-10.523,5.023c4.628,2.344,7.706,1.666,9.9,0.369
		c2.214-1.322,3.64-3.26,5.336-3.855c11.764,3.596,24.042,4.584,36.018,5.738c5.987,0.613,11.915,1.465,17.601,3.164
		c5.684,1.691,11.104,4.201,16.164,7.346l1.363-2.207c-5.219-3.242-10.873-5.867-16.789-7.625c-5.92-1.77-12.029-2.641-18.071-3.258
		c-12.063-1.16-24.094-2.143-35.544-5.645c-1.053-1.404-1.058-3.832-1.827-6.143c-0.772-2.338-2.242-4.518-6.258-5.904
		c-1.64,5.348,0.752,8.768,3.496,10.551c-1.744-0.611-3.466-1.277-5.172-1.986c-1.787-3.111,0.879-9.379-6.813-12.814
		c-2.181,5.154-0.144,8.797,2.4,10.852c-1.676-0.779-3.315-1.633-4.946-2.498c-0.738-1.609-0.262-3.963-0.541-6.393
		c-0.28-2.449-1.283-4.875-4.932-7.059c-2.698,4.916-1.038,8.736,1.281,11.045c-1.58-0.955-3.134-1.955-4.659-2.992
		c-0.572-1.674,0.136-3.963,0.11-6.414c-0.035-2.459-0.789-4.977-4.196-7.521c-3.183,4.623-1.912,8.586,0.157,11.121
		c-1.468-1.119-2.924-2.254-4.332-3.453c-0.407-1.713,0.546-3.936,0.758-6.369c0.214-2.447-0.278-5.037-3.415-7.91
		c-3.629,4.275-2.781,8.359-0.966,11.082c-1.35-1.26-2.679-2.543-3.958-3.873c-0.41-3.566,4.51-8.268-1.206-14.467
		c-4.033,3.875-3.605,8.027-2.076,10.918c-1.226-1.381-2.406-2.801-3.551-4.248c-0.046-3.586,5.325-7.771,0.269-14.516
		c-4.407,3.445-4.397,7.617-3.175,10.65c-1.081-1.492-2.101-3.033-3.104-4.584c0.137-1.764,1.695-3.59,2.631-5.852
		c0.944-2.275,1.247-4.885-0.879-8.561c-4.745,2.982-5.154,7.131-4.249,10.271c-0.918-1.6-1.787-3.23-2.62-4.879
		c0.315-1.74,2.047-3.396,3.216-5.549c1.167-2.166,1.731-4.73,0-8.605c-5.034,2.484-5.856,6.564-5.279,9.787
		c-0.738-1.693-1.458-3.393-2.102-5.125c0.474-1.689,2.393-3.174,3.761-5.189c1.381-2.035,2.22-4.531,0.878-8.563
		c-5.246,1.953-6.503,5.936-6.245,9.197c-0.574-1.754-1.099-3.529-1.573-5.313c1.383-3.311,7.973-5.006,6.026-13.208
		c-5.421,1.41-7.067,5.237-7.154,8.508c-0.4-1.801-0.719-3.622-1.022-5.442c0.83-1.563,2.978-2.619,4.743-4.32
		c1.768-1.711,3.081-3.986,2.596-8.213c-5.541,0.857-7.563,4.496-7.984,7.748c-0.192-1.84-0.363-3.678-0.456-5.525
		c2.021-2.961,8.829-3.295,8.559-11.734c-5.598,0.294-7.967,3.718-8.718,6.908c-0.009-1.848,0.004-3.697,0.102-5.541
		c1.097-1.371,3.452-1.97,5.504-3.285c2.072-1.323,3.83-3.289,4.189-7.522c-5.591-0.275-8.32,2.888-9.376,5.983
		c0.171-1.837,0.395-3.67,0.65-5.499c2.604-2.492,9.304-1.464,10.75-9.759c-5.542-0.845-8.556,2.024-9.927,4.994
		c0.352-1.811,0.749-3.613,1.211-5.402c1.35-1.117,3.782-1.226,6.053-2.097c2.305-0.874,4.414-2.442,5.629-6.512
		c-5.408-1.399-8.74,1.13-10.39,3.953c0.538-1.769,1.128-3.517,1.755-5.253c1.493-0.959,3.866-0.841,6.247-1.463
		c2.369-0.638,4.646-1.975,6.265-5.9c-5.266-1.962-8.784,0.242-10.744,2.869c0.719-1.702,1.48-3.387,2.288-5.047
		c3.221-1.593,9.299,1.422,13.191-6.055c-5.018-2.477-8.777-0.658-10.973,1.765c0.88-1.625,1.811-3.22,2.788-4.785
		c1.634-0.652,3.972-0.031,6.411-0.171c2.452-0.14,4.947-0.996,7.331-4.516c-4.737-2.967-8.672-1.552-11.102,0.638
		c1.047-1.521,2.137-3.013,3.258-4.477c1.717-0.466,3.942,0.361,6.4,0.483c2.453,0.104,5.026-0.488,7.753-3.75
		c-4.435-3.452-8.454-2.406-11.111-0.491l1.021-1.182l3.601-4.055c1.269,0.265,3.041-0.303,4.951-2.099
		c2.204-2.08,4.136-5.283,4.167-7.744c-2.364-0.537-6.116,0.887-8.474,3.114C1207.1,60.872,1206.491,62.75,1206.788,64.017z"/>
	<path fill-rule="evenodd" clip-rule="evenodd" d="M1354.624,65.684l3.605,4.055l1.025,1.182c-2.662-1.914-6.684-2.961-11.119,0.491
		c2.727,3.264,5.303,3.857,7.754,3.75c2.459-0.122,4.686-0.949,6.4-0.486c1.123,1.467,2.213,2.959,3.262,4.48
		c-2.43-2.19-6.367-3.605-11.105-0.638c2.385,3.52,4.877,4.375,7.332,4.516c2.439,0.14,4.777-0.483,6.41,0.171
		c0.98,1.565,1.912,3.16,2.791,4.785c-2.197-2.423-5.959-4.241-10.975-1.765c3.891,7.477,9.969,4.462,13.193,6.057
		c0.811,1.66,1.568,3.343,2.287,5.045c-1.959-2.625-5.48-4.831-10.748-2.869c1.621,3.93,3.898,5.265,6.268,5.9
		c2.379,0.622,4.754,0.504,6.248,1.463c0.627,1.736,1.219,3.488,1.756,5.255c-1.65-2.823-4.984-5.354-10.393-3.955
		c1.217,4.069,3.324,5.638,5.629,6.511c2.273,0.872,4.703,0.98,6.057,2.098c0.463,1.789,0.861,3.594,1.211,5.408
		c-1.371-2.974-4.389-5.845-9.93-5c1.447,8.295,8.146,7.267,10.752,9.759c0.258,1.829,0.48,3.662,0.65,5.501
		c-1.055-3.097-3.787-6.261-9.379-5.985c0.359,4.233,2.119,6.199,4.191,7.522c2.053,1.316,4.404,1.918,5.506,3.285
		c0.096,1.846,0.111,3.693,0.102,5.543c-0.754-3.189-3.123-6.615-8.719-6.91c-0.27,8.439,6.537,8.773,8.561,11.734
		c-0.094,1.848-0.264,3.686-0.457,5.525c-0.422-3.25-2.445-6.891-7.988-7.748c-0.482,4.227,0.83,6.504,2.598,8.213
		c1.766,1.701,3.916,2.758,4.746,4.32c-0.303,1.822-0.623,3.641-1.021,5.444c-0.088-3.271-1.736-7.1-7.158-8.51
		c-1.947,8.202,4.645,9.897,6.027,13.211c-0.471,1.783-0.996,3.557-1.57,5.311c0.254-3.262-1.004-7.246-6.246-9.199
		c-1.346,4.031-0.506,6.527,0.877,8.563c1.365,2.018,3.287,3.5,3.764,5.191c-0.646,1.732-1.369,3.432-2.102,5.127
		c0.572-3.225-0.248-7.307-5.281-9.791c-1.732,3.875-1.17,6.439,0,8.605c1.166,2.152,2.898,3.809,3.213,5.549
		c-0.832,1.65-1.697,3.285-2.617,4.887c0.9-3.148,0.496-7.297-4.248-10.279c-2.129,3.676-1.826,6.285-0.881,8.561
		c0.938,2.262,2.496,4.088,2.633,5.854c-1.002,1.549-2.021,3.092-3.105,4.586c1.223-3.035,1.232-7.209-3.176-10.654
		c-5.057,6.744,0.318,10.93,0.271,14.518c-1.146,1.447-2.328,2.869-3.553,4.252c1.527-2.895,1.957-7.049-2.078-10.924
		c-5.713,6.201-0.793,10.9-1.199,14.471c-1.283,1.328-2.613,2.615-3.965,3.873c1.814-2.723,2.662-6.811-0.965-11.086
		c-3.137,2.873-3.627,5.463-3.414,7.91c0.213,2.436,1.164,4.658,0.758,6.371c-1.406,1.201-2.865,2.334-4.332,3.457
		c2.07-2.541,3.34-6.504,0.158-11.127c-3.408,2.545-4.164,5.063-4.199,7.523c-0.025,2.451,0.684,4.74,0.113,6.414
		c-1.527,1.039-3.082,2.041-4.662,2.996c2.318-2.313,3.979-6.135,1.283-11.051c-3.646,2.184-4.652,4.609-4.932,7.059
		c-0.279,2.432,0.195,4.783-0.541,6.395c-1.631,0.867-3.27,1.721-4.945,2.502c2.545-2.061,4.58-5.703,2.4-10.857
		c-7.691,3.439-5.027,9.703-6.814,12.816c-1.705,0.711-3.43,1.375-5.17,1.986c2.742-1.781,5.135-5.205,3.494-10.553
		c-4.016,1.387-5.484,3.566-6.258,5.906c-0.77,2.309-0.775,4.738-1.83,6.146c-11.449,3.498-23.481,4.482-35.542,5.641
		c-6.038,0.617-12.148,1.488-18.069,3.258c-5.917,1.76-11.57,4.381-16.787,7.623l1.364,2.207c5.06-3.143,10.477-5.65,16.162-7.344
		c5.688-1.699,11.612-2.549,17.6-3.162c11.974-1.158,24.255-2.143,36.021-5.742c1.693,0.596,3.119,2.535,5.336,3.855
		c2.189,1.297,5.271,1.975,9.898-0.369c-3.02-4.742-7.215-5.33-10.523-5.021c1.787-0.627,3.555-1.309,5.301-2.035
		c1.746,0.412,3.365,2.201,5.703,3.285c2.313,1.061,5.445,1.428,9.807-1.379c-3.484-4.408-7.721-4.568-10.98-3.92
		c1.717-0.799,3.398-1.672,5.07-2.563c1.771,0.219,3.572,1.852,6.004,2.682c2.41,0.824,5.566,0.871,9.613-2.369
		c-3.908-4.023-8.148-3.762-11.322-2.777c1.623-0.982,3.217-2.006,4.781-3.07c1.785,0.041,3.748,1.484,6.246,2.059
		c2.484,0.582,5.627,0.309,9.322-3.328c-4.293-3.6-8.486-2.922-11.539-1.617c1.504-1.148,2.998-2.311,4.439-3.541
		c1.789-0.129,3.871,1.092,6.426,1.42c2.531,0.326,5.623-0.27,8.936-4.256c-4.641-3.152-8.73-2.037-11.643-0.441
		c1.385-1.291,2.746-2.607,4.059-3.971c1.77-0.311,3.959,0.691,6.535,0.766c2.547,0.064,5.563-0.84,8.463-5.137
		c-4.943-2.674-8.895-1.148-11.635,0.734c1.258-1.418,2.469-2.875,3.641-4.361c1.727-0.488,4.01,0.289,6.578,0.102
		c2.539-0.197,5.451-1.4,7.902-5.971c-5.189-2.162-8.971-0.24-11.5,1.912c1.109-1.537,2.156-3.115,3.182-4.705
		c1.656-0.668,4.023-0.117,6.553-0.572c2.506-0.453,5.287-1.941,7.252-6.742c-5.375-1.617-8.949,0.672-11.246,3.07
		c0.947-1.641,1.836-3.314,2.688-5.004c1.58-0.836,3.996-0.525,6.461-1.238c2.449-0.701,5.068-2.471,6.525-7.451
		c-5.5-1.055-8.832,1.586-10.865,4.211c0.752-1.738,1.492-3.484,2.154-5.26c1.502-0.982,3.908-0.932,6.301-1.885
		c2.369-0.951,4.777-2.986,5.734-8.084c-5.6-0.492-8.621,2.482-10.387,5.297c0.586-1.799,1.125-3.615,1.609-5.449
		c1.389-1.133,3.793-1.328,6.08-2.521c2.246-1.193,4.443-3.457,4.867-8.625c-5.613,0.086-8.322,3.348-9.789,6.331
		c0.41-1.85,0.738-3.713,1.047-5.583c1.25-1.271,3.65-1.709,5.783-3.131c2.125-1.414,4.084-3.889,3.973-9.07
		c-5.572,0.652-7.943,4.172-9.094,7.293c0.197-1.887,0.373-3.771,0.469-5.664c1.137-1.391,3.443-2.07,5.441-3.697
		c1.959-1.617,3.66-4.271,3.041-9.415c-5.482,1.205-7.496,4.944-8.32,8.163c0.01-1.896-0.008-3.789-0.104-5.682
		c0.996-1.497,3.223-2.4,5.045-4.222c1.803-1.809,3.213-4.622,2.074-9.682c-5.336,1.755-6.936,5.679-7.447,8.963
		c-0.174-1.887-0.402-3.768-0.664-5.643c0.799-1.586,2.969-2.72,4.578-4.715c1.598-1.981,2.734-4.929,1.078-9.85
		c-5.119,2.294-6.334,6.365-6.5,9.682c-0.361-1.858-0.771-3.709-1.242-5.542c0.674-1.669,2.664-3.006,4.086-5.165
		c1.391-2.133,2.209-5.183,0.059-9.907c-4.877,2.814-5.627,6.972-5.471,10.297c-0.551-1.813-1.158-3.606-1.801-5.388
		c0.463-1.717,2.365-3.271,3.525-5.553c1.178-2.271,1.658-5.376-0.953-9.856c-4.535,3.278-4.91,7.521-4.385,10.797
		c-0.74-1.742-1.518-3.472-2.348-5.175c0.314-1.767,1.99-3.479,2.947-5.884c0.91-2.36,1.121-5.528-1.949-9.708
		c-4.199,3.738-4.109,7.975-3.273,11.191c-0.902-1.665-1.859-3.299-2.857-4.905c0.131-1.794,1.637-3.676,2.33-6.153
		c0.688-2.459,0.537-5.604-2.924-9.461c-3.801,4.149-3.27,8.342-2.115,11.46c-1.076-1.558-2.193-3.087-3.342-4.589
		c-0.076-1.778,1.27-3.833,1.689-6.354c0.439-2.519-0.031-5.624-3.865-9.114c-3.342,4.494-2.426,8.646-0.941,11.618l-1.049-1.213
		c-1.008-1.158-2.355-2.582-3.848-4.01c0.301-1.269-0.305-3.147-2.35-5.063c-2.359-2.227-6.113-3.651-8.475-3.114
		c0.033,2.461,1.963,5.665,4.162,7.744C1351.585,65.381,1353.356,65.949,1354.624,65.684z"/>
	<path fill-rule="evenodd" clip-rule="evenodd" d="M1332.634,44.284l0.848,2.805c0.088,0.084,0.168,0.171,0.256,0.171h2.889
		c0.088,0,0.17,0.086,0.256,0.169c0,0.085,0,0.171-0.086,0.256l-2.379,1.702c-0.086,0.083-0.086,0.168-0.086,0.253l0.936,2.723
		c0,0.17,0,0.253-0.08,0.253c-0.088,0.086-0.176,0.086-0.256,0l-2.385-1.7c-0.084,0-0.17,0-0.256,0l-2.377,1.7
		c-0.088,0.086-0.17,0.086-0.256,0c-0.084,0-0.17-0.083-0.084-0.253l0.932-2.723c0-0.085,0-0.17-0.082-0.253l-2.383-1.702
		c-0.082-0.085-0.168-0.171-0.082-0.256c0-0.083,0.082-0.169,0.17-0.169h2.977c0.08,0,0.17-0.087,0.17-0.171l0.934-2.805
		c0-0.087,0.082-0.087,0.168-0.087S1332.546,44.197,1332.634,44.284L1332.634,44.284z M1227.935,44.284l-0.846,2.805
		c-0.089,0.084-0.17,0.171-0.256,0.171h-2.89c-0.088,0-0.169,0.086-0.256,0.169c0,0.085,0,0.171,0.087,0.256l2.378,1.702
		c0.087,0.083,0.087,0.168,0.087,0.253l-0.937,2.723c0,0.17,0,0.253,0.082,0.253c0.088,0.086,0.175,0.086,0.256,0l2.384-1.7
		c0.083,0,0.17,0,0.256,0l2.377,1.7c0.088,0.086,0.169,0.086,0.256,0c0.083,0,0.169-0.083,0.083-0.253l-0.931-2.723
		c0-0.085,0-0.17,0.082-0.253l2.384-1.702c0.081-0.085,0.168-0.171,0.081-0.256c0-0.083-0.081-0.169-0.167-0.169h-2.978
		c-0.081,0-0.169-0.087-0.169-0.171l-0.935-2.805c0-0.087-0.081-0.087-0.167-0.087C1228.106,44.197,1228.023,44.197,1227.935,44.284
		L1227.935,44.284z M1247.658,34.189l-1.48,4.896c-0.153,0.147-0.295,0.299-0.446,0.299h-5.041c-0.155,0-0.295,0.149-0.444,0.293
		c0,0.149,0,0.301,0.149,0.448l4.15,2.968c0.149,0.148,0.149,0.295,0.149,0.444l-1.632,4.75c0,0.297,0,0.442,0.14,0.442
		c0.153,0.149,0.306,0.149,0.446,0l4.163-2.967c0.14,0,0.293,0,0.445,0l4.146,2.967c0.153,0.149,0.297,0.149,0.45,0
		c0.142,0,0.293-0.146,0.142-0.442l-1.624-4.75c0-0.149,0-0.296,0.142-0.444l4.162-2.968c0.14-0.147,0.292-0.299,0.14-0.448
		c0-0.144-0.14-0.293-0.295-0.293h-5.194c-0.142,0-0.296-0.151-0.296-0.299l-1.632-4.896c0-0.151-0.14-0.151-0.292-0.151
		C1247.953,34.038,1247.813,34.038,1247.658,34.189L1247.658,34.189z M1312.913,34.189l1.48,4.896
		c0.152,0.147,0.295,0.299,0.445,0.299h5.041c0.156,0,0.295,0.149,0.447,0.293c0,0.149,0,0.301-0.152,0.448l-4.15,2.968
		c-0.148,0.148-0.148,0.295-0.148,0.444l1.631,4.75c0,0.297,0,0.442-0.139,0.442c-0.156,0.149-0.307,0.149-0.447,0l-4.164-2.967
		c-0.139,0-0.293,0-0.443,0l-4.146,2.967c-0.154,0.149-0.297,0.149-0.451,0c-0.141,0-0.293-0.146-0.141-0.442l1.623-4.75
		c0-0.149,0-0.296-0.141-0.444l-4.162-2.968c-0.141-0.147-0.291-0.299-0.141-0.448c0-0.144,0.141-0.293,0.295-0.293h5.195
		c0.141,0,0.295-0.151,0.295-0.299l1.631-4.896c0-0.151,0.143-0.151,0.293-0.151C1312.618,34.038,1312.757,34.038,1312.913,34.189z"
		/>
	<path d="M1340.335,198.951c16.482-16.473,24.721-38.068,24.721-59.657c0-21.589-8.238-43.182-24.721-59.659
		c-16.471-16.477-38.068-24.718-59.657-24.718s-43.178,8.241-59.656,24.718c-16.482,16.477-24.721,38.07-24.721,59.659
		c0,21.588,8.239,43.184,24.721,59.657c16.478,16.48,38.067,24.721,59.656,24.721S1323.864,215.432,1340.335,198.951
		L1340.335,198.951z M1367.341,139.294c0,22.174-8.463,44.35-25.391,61.274c-16.922,16.926-39.1,25.385-61.272,25.385
		c-22.172,0-44.347-8.459-61.271-25.385c-16.923-16.924-25.392-39.1-25.392-61.274c0-22.175,8.464-44.348,25.392-61.273
		c16.924-16.925,39.099-25.387,61.271-25.387c22.173,0,44.351,8.461,61.272,25.387
		C1358.878,94.946,1367.341,117.12,1367.341,139.294z"/>
	<g id="_x32_5">
		<rect x="1165.435" y="69.391" fill="none" width="243.797" height="127.869"/>
		
			<text transform="matrix(1 0 0 1 1237.9087 181.8906)" display="none" fill="#FFFFFF" font-family="'BirchStd'" font-size="150" letter-spacing="15">35</text>
		<path display="none" fill-rule="evenodd" clip-rule="evenodd" d="M1284.12,61.597c-42.885,0-77.625,34.74-77.625,77.625
			c0,42.886,34.74,77.624,77.625,77.624c42.886,0,77.627-34.738,77.627-77.624C1361.747,96.337,1327.006,61.597,1284.12,61.597z"/>
		<g display="none">
			<path display="inline" fill="#231F20" d="M1256.684,135.193c0-0.6,0.45-1.2,1.351-1.2c5.999,0,13.199-4.95,13.199-22.199
				c0-15.149-1.95-21.899-7.8-21.899c-7.5,0-13.35,15.299-13.8,16.799c-0.3,1.05-0.75,1.5-1.8,1.5c-0.75,0-1.05-0.75-0.899-1.95
				c1.649-13.199,9.899-23.849,19.349-23.849c9.3,0,16.05,9,16.05,25.649c0,17.549-7.05,25.649-13.05,27.899v0.3
				c6,2.25,13.05,8.85,13.05,29.549c0,17.999-4.95,29.099-18.899,29.099c-12.6,0-16.649-15.299-16.649-28.499
				c0-1.2,0.3-1.95,0.9-1.95c1.05,0,1.649,0.45,1.649,1.801c0,6.299,5.4,21.148,13.199,21.148c5.55,0,8.7-4.35,8.7-23.699
				c0-16.949-7.05-25.349-13.199-25.349c-0.9,0-1.351-0.45-1.351-1.05V135.193z"/>
			<path display="inline" fill="#231F20" d="M1296.803,125.293h0.301c2.1-1.8,4.65-3.75,8.4-3.75c9.6,0,16.35,13.95,16.35,32.849
				c0,24.599-4.951,40.499-18.301,40.499c-10.498,0-15.299-15.299-15.299-28.499c0-1.2,0.301-1.95,0.9-1.95
				c1.049,0,1.65,0.45,1.65,1.801c0,6.299,5.398,21.148,11.1,21.148c5.998,0,8.85-7.35,8.85-32.398
				c0-16.949-1.801-25.949-7.65-25.949c-3.75,0-7.949,5.7-11.25,10.35c-0.75,1.05-1.65,2.4-2.85,2.4c-1.051,0-1.35-0.6-1.35-1.8
				l2.85-55.348c0-1.2,0.6-1.95,1.35-1.95c1.201,0,2.85,0.45,4.051,1.05c3.449,1.5,6.75,2.4,10.498,2.4
				c4.201,0,7.801-0.9,10.801-2.1c2.25-0.9,3.449-1.65,4.5-1.65c1.049,0,0,4.05-3.301,8.25c-2.85,3.45-7.199,5.85-11.699,5.85
				c-2.699,0-5.699-0.3-7.199-0.9c-0.75-0.3-1.201,0.3-1.201,1.05L1296.803,125.293z"/>
		</g>
		<path fill-rule="evenodd" clip-rule="evenodd" d="M1280.678,61.669c-42.885,0-77.625,34.74-77.625,77.625
			s34.74,77.624,77.625,77.624c42.886,0,77.628-34.738,77.628-77.624S1323.563,61.669,1280.678,61.669z M1278.891,165.863
			c0,18-4.95,29.1-18.899,29.1c-12.6,0-16.649-15.299-16.649-28.5c0-1.199,0.3-1.949,0.9-1.949c1.05,0,1.649,0.449,1.649,1.801
			c0,6.299,5.4,21.148,13.199,21.148c5.55,0,8.7-4.35,8.7-23.699c0-16.949-7.05-25.349-13.199-25.349c-0.9,0-1.351-0.45-1.351-1.05
			v-2.1c0-0.6,0.45-1.2,1.351-1.2c5.999,0,13.199-4.95,13.199-22.199c0-15.149-1.95-21.899-7.8-21.899
			c-7.5,0-13.35,15.299-13.8,16.799c-0.3,1.05-0.75,1.5-1.8,1.5c-0.75,0-1.05-0.75-0.899-1.95
			c1.649-13.199,9.899-23.849,19.349-23.849c9.3,0,16.05,9,16.05,25.649c0,17.549-7.05,25.649-13.05,27.899v0.3
			C1271.841,138.565,1278.891,145.165,1278.891,165.863z M1293.661,125.365c2.1-1.8,4.65-3.75,8.4-3.75
			c9.6,0,16.35,13.95,16.35,32.849c0,24.599-4.951,40.499-18.301,40.499c-10.498,0-15.299-15.299-15.299-28.5
			c0-1.199,0.301-1.949,0.9-1.949c1.049,0,1.65,0.449,1.65,1.801c0,6.299,5.398,21.148,11.1,21.148c5.998,0,8.85-7.35,8.85-32.398
			c0-16.95-1.801-25.949-7.65-25.949c-3.75,0-7.949,5.7-11.25,10.35c-0.75,1.05-1.65,2.4-2.85,2.4c-1.051,0-1.35-0.6-1.35-1.8
			l2.85-55.348c0-1.2,0.6-1.95,1.35-1.95c1.201,0,2.85,0.45,4.051,1.05c3.449,1.5,6.75,2.4,10.498,2.4c4.201,0,7.801-0.9,10.801-2.1
			c2.25-0.9,3.449-1.65,4.5-1.65c1.049,0,0,4.05-3.301,8.25c-2.85,3.45-7.199,5.85-11.699,5.85c-2.699,0-5.699-0.3-7.199-0.9
			c-0.75-0.3-1.201,0.3-1.201,1.05l-1.5,28.649H1293.661z"/>
	</g>
</g>
<g id="sign" display="none">
	<path display="inline" fill-rule="evenodd" clip-rule="evenodd" fill="none" stroke="#A79272" stroke-miterlimit="10" d="
		M1454.467,302.168h-159.845h-156.923c-4.559,0-8.291,3.232-8.291,7.188v3.586c0,4.574-2.281,8.509-5.478,10.065
		c-0.304,0.148-0.482,0.412-0.482,0.716c0,0.303,0.178,0.564,0.482,0.714c3.196,1.557,5.478,5.492,5.478,10.067v3.586
		c0,3.953,3.731,7.188,8.291,7.188h156.923h159.845c4.559,0,8.29-3.234,8.29-7.188v-3.586c0-4.575,2.28-8.511,5.477-10.067
		c0.306-0.149,0.482-0.411,0.482-0.714c0-0.304-0.177-0.567-0.482-0.716c-3.196-1.557-5.477-5.491-5.477-10.065v-3.586
		C1462.757,305.4,1459.025,302.168,1454.467,302.168z"/>
	<rect x="1161.908" y="311.888" display="inline" fill="none" width="267.799" height="47.518"/>
	
		<text transform="matrix(1 0 0 1 1173.8438 336.9287)" display="inline" fill="#A79272" font-family="'BirchStd'" font-size="33.3879" letter-spacing="3">YEARS IN THE MAKING</text>
	
		<rect x="1152.172" y="334.057" transform="matrix(-1 -0.0032 0.0032 -1 2312.9976 672.8435)" display="inline" fill-rule="evenodd" clip-rule="evenodd" fill="#A79272" width="9.734" height="1.018"/>
	
		<rect x="1152.172" y="314.253" display="inline" fill-rule="evenodd" clip-rule="evenodd" fill="#A79272" width="9.733" height="1.021"/>
	
		<rect x="1143.264" y="323.756" display="inline" fill-rule="evenodd" clip-rule="evenodd" fill="#A79272" width="18.643" height="1.02"/>
	
		<rect x="1430.543" y="334.057" transform="matrix(1 -0.0032 0.0032 1 -1.0668 4.6097)" display="inline" fill-rule="evenodd" clip-rule="evenodd" fill="#A79272" width="9.734" height="1.018"/>
	
		<rect x="1430.542" y="314.253" display="inline" fill-rule="evenodd" clip-rule="evenodd" fill="#A79272" width="9.734" height="1.021"/>
	
		<rect x="1430.542" y="323.756" display="inline" fill-rule="evenodd" clip-rule="evenodd" fill="#A79272" width="18.643" height="1.02"/>
</g>
</svg>
