<?xml version="1.0" encoding="utf-8"?>
<!-- Generator: Adobe Illustrator 16.0.0, SVG Export Plug-In . SVG Version: 6.00 Build 0)  -->
<!DOCTYPE svg PUBLIC "-//W3C//DTD SVG 1.1//EN" "http://www.w3.org/Graphics/SVG/1.1/DTD/svg11.dtd">
<svg version="1.1" id="Layer_1" xmlns="http://www.w3.org/2000/svg" xmlns:xlink="http://www.w3.org/1999/xlink" x="0px" y="0px"
	 width="50.375px" height="19.75px" viewBox="0 0 50.375 19.75" enable-background="new 0 0 50.375 19.75" xml:space="preserve">
<path fill-rule="evenodd" clip-rule="evenodd" fill="#000" d="M0.869,6.886C0.9,7.044,1.54,7.229,1.663,7.476
	C1.781,7.698,1.59,7.993,1.634,8.229c0.104,0.473,0.118,1.019,0.473,1.344c0.296,0.266,0.842-0.044,1.182,0.147
	c0.295,0.163,0.487,0.517,0.591,0.842c0.073,0.222-0.074,0.473-0.06,0.709c0.015,0.457,0.118,0.9,0.178,1.344
	c0.015,0.207-0.06,0.428,0.044,0.605c0.059,0.118,0.251,0.104,0.384,0.147c0.162,0.044,0.398-0.015,0.458,0.134
	c0.191,0.398,0.133,0.871,0.251,1.299c0.044,0.207,0.044,0.487,0.222,0.576c0.162,0.088,0.442-0.029,0.502-0.207
	c0.118-0.34-0.029-0.709-0.06-1.063c-0.029-0.472-0.147-0.931-0.133-1.403c0.015-0.176,0.045-0.412,0.192-0.486
	c0.133-0.06,0.325,0.074,0.384,0.207c0.162,0.442,0.147,0.93,0.207,1.402c0.044,0.369-0.015,0.753,0.059,1.122
	c0.045,0.207,0.207,0.37,0.311,0.546c0.089,0.134,0.207,0.252,0.236,0.414c0.059,0.222,0.015,0.473,0.029,0.709
	c0.015,0.34-0.015,0.68,0.044,1.004c0.06,0.266,0.207,0.502,0.325,0.738c0.06,0.104,0.178,0.148,0.222,0.252
	c0.073,0.117,0,0.383,0.133,0.398c0.177,0.029,0.384-0.163,0.398-0.34c0.06-1.02-0.206-2.053-0.147-3.072
	c0.015-0.295,0.266-0.516,0.369-0.797c0.089-0.251,0.178-0.531,0.162-0.813c-0.029-0.398-0.266-0.768-0.295-1.166
	c-0.029-0.162,0-0.355,0.118-0.488c0.089-0.117,0.207-0.133,0.354-0.059c0.236,0.133,0.222,0.428,0.384,0.65
	c0.104,0.162,0.311,0.31,0.473,0.398c0.133,0.088,0.311-0.016,0.473-0.045c0.236-0.044,0.531,0.016,0.694-0.162
	c0.177-0.191-0.06-0.605,0.147-0.753c0.177-0.133,0.413,0.177,0.635,0.206c0.222,0.03,0.458,0.09,0.649,0
	c0.192-0.088,0.369-0.279,0.414-0.486c0.073-0.34-0.089-0.694-0.074-1.034c0.015-0.177,0.015-0.487,0.178-0.487
	c0.251-0.015,0.384-0.163,0.561-0.192c0.222-0.044,0.398,0.207,0.547,0.384c0.133,0.177,0.133,0.443,0.28,0.621
	c0.177,0.221,0.413,0.428,0.694,0.561c0.28,0.133,0.62,0.119,0.93,0.207c0.192,0.059,0.414,0.089,0.576,0.207
	c0.147,0.117,0.236,0.295,0.325,0.457c0.059,0.104,0,0.296,0.118,0.325c0.162,0.044,0.31-0.103,0.458-0.177
	c0.236-0.104,0.487-0.222,0.708-0.354c0.207-0.118,0.443-0.222,0.576-0.429c0.104-0.147,0.06-0.354,0.06-0.531
	c0.015-0.118-0.045-0.236-0.015-0.354c0.029-0.073,0.073-0.147,0.147-0.163c0.206-0.043,0.413,0.074,0.605,0.03
	c0.162-0.044,0.31-0.147,0.428-0.266c0.192-0.222,0.311-0.488,0.473-0.739c0.074-0.133,0.104-0.31,0.222-0.413
	c0.074-0.074,0.207-0.104,0.325-0.074c0.147,0.03,0.251,0.177,0.398,0.222c0.162,0.029,0.369,0.074,0.502-0.029
	c0.266-0.207,0.354-0.562,0.576-0.813c0.118-0.118,0.28-0.281,0.458-0.295c0.206-0.015,0.398,0.148,0.59,0.222
	c0.222,0.088,0.414,0.251,0.636,0.281c0.191,0.015,0.398-0.03,0.546-0.148c0.222-0.163,0.34-0.428,0.517-0.65
	c0.118-0.118,0.178-0.354,0.354-0.369c0.163,0,0.251,0.222,0.384,0.325c0.192,0.162,0.385,0.369,0.621,0.472
	c0.133,0.074,0.31,0.089,0.473,0.059c0.384-0.044,0.768-0.103,1.122-0.266c0.222-0.088,0.31-0.443,0.546-0.487
	c0.163-0.029,0.251,0.222,0.384,0.31c0.089,0.059,0.178,0.163,0.281,0.147c0.236-0.029,0.428-0.221,0.664-0.28
	c0.178-0.03,0.369-0.015,0.517,0.044c0.148,0.074,0.251,0.221,0.325,0.339c0.147,0.236,0.178,0.546,0.369,0.738
	c0.089,0.074,0.266,0.015,0.369-0.059c0.133-0.118,0.207-0.295,0.281-0.458c0.059-0.133,0.073-0.295,0.118-0.458
	c0.015-0.074,0-0.266,0.088-0.251c0.207,0.044,0.384,0.192,0.518,0.354c0.132,0.192,0.177,0.428,0.221,0.665
	c0.045,0.207-0.029,0.443,0.029,0.665c0.06,0.207,0.222,0.369,0.311,0.576c0.089,0.207,0.162,0.414,0.207,0.635
	c0.044,0.206-0.163,0.575,0.044,0.649s0.369-0.266,0.458-0.473c0.133-0.324,0.133-0.679,0.177-1.019
	c0.03-0.31,0.03-0.605,0.06-0.901c0.015-0.147,0-0.295,0.073-0.414c0.06-0.088,0.192-0.162,0.311-0.147
	c0.162,0.044,0.325,0.147,0.369,0.31c0.177,0.679,0.192,1.403,0.251,2.112c0.044,0.414,0.06,0.826,0.06,1.24
	c0,0.325-0.118,0.65-0.074,0.975c0.029,0.222,0.222,0.385,0.295,0.591c0.118,0.31,0.251,0.62,0.267,0.96
	c0.029,0.369-0.163,0.738-0.163,1.122c0,0.236-0.073,0.636,0.163,0.709s0.457-0.28,0.546-0.502c0.133-0.325,0.089-0.694,0.089-1.034
	c0.029-0.517,0-1.048,0-1.564c0.015-0.223-0.029-0.473,0.029-0.695c0.029-0.103,0.118-0.279,0.222-0.25
	c0.177,0.044,0.31,0.236,0.354,0.398c0.162,0.473,0.177,0.975,0.251,1.462c0.015,0.147-0.104,0.354,0.029,0.429
	c0.133,0.059,0.354-0.06,0.414-0.192c0.235-0.635,0.295-1.314,0.442-1.979c0.207-0.959,0.354-1.919,0.605-2.864
	c0.118-0.458,0.296-0.901,0.517-1.329c0.104-0.192,0.192-0.473,0.414-0.531c0.191-0.044,0.384,0.162,0.546,0.266
	c0.236,0.162,0.429,0.398,0.665,0.561c0.177,0.133,0.369,0.354,0.561,0.295c0.325-0.104,0.429-0.576,0.739-0.679
	c0.162-0.044-0.267,0.443-0.118,0.487c0.235,0.044,0.413-0.266,0.635-0.369c0.162-0.059,0.324-0.177,0.487-0.148
	c0.162,0.044,0.222,0.266,0.369,0.34c0.133,0.088,0.295,0.163,0.458,0.177c0.221,0,0.442-0.104,0.664-0.163
	c0.222-0.044,0.458-0.059,0.68-0.162c0.104-0.044,0.147-0.251,0.266-0.251c0.31,0.03,0.487,0.399,0.797,0.473
	c0.34,0.074,0.709,0.148,1.063,0.118c0.222-0.029,0.473-0.104,0.635-0.251c0.296-0.281,0.665-0.738,0.798-1.137
	c0.034-0.117,0.058-0.239,0.072-0.362c0.03-0.211,0.033-0.424,0.021-0.637c0.075-0.15-0.006-0.321,0.1-0.492
	c0.117-0.192,0.339-0.399,0.517-0.546c0.147-0.118,0.295-0.222,0.384-0.384c0.118-0.207,0.133-0.472,0.133-0.708
	c-0.015-0.281-0.059-0.562-0.192-0.813c-0.133-0.251-0.354-0.443-0.575-0.635c-0.163-0.148-0.354-0.295-0.562-0.34
	c-0.311-0.088-0.649-0.029-0.96-0.059c-0.133-0.015-0.324,0.015-0.398-0.088c-0.118-0.177,0-0.458-0.118-0.635
	s-0.325-0.28-0.531-0.325c-0.385-0.104-0.798-0.029-1.196-0.089c-0.354-0.044-0.694-0.177-1.049-0.207
	c-0.222-0.015-0.473-0.029-0.68,0.059c-0.398,0.147-0.693,0.473-1.077,0.62c-0.325,0.133-0.68,0.177-1.034,0.207
	c-0.398,0.029-0.797,0.015-1.182-0.03c-0.442-0.059-0.871-0.192-1.313-0.295c-0.414-0.088-0.827-0.147-1.227-0.251
	c-0.457-0.133-0.886-0.354-1.358-0.458c-0.635-0.133-1.299-0.236-1.964-0.281c-0.827-0.059-1.654,0.015-2.495-0.029
	c-0.605-0.03-1.211-0.163-1.832-0.192c-0.442-0.029-0.915-0.059-1.358,0C27.86,0.875,27.019,1.082,26.147,1.2
	c-0.842,0.104-1.684,0.163-2.54,0.281c-0.975,0.133-1.949,0.221-2.909,0.428c-0.871,0.177-1.713,0.458-2.569,0.708
	c-0.517,0.163-1.004,0.458-1.551,0.546c-0.517,0.089-1.063,0.03-1.595-0.029c-0.487-0.059-1.004-0.104-1.447-0.31
	c-0.591-0.266-1.004-0.797-1.58-1.093c-0.398-0.192-0.856-0.236-1.284-0.34c-0.547-0.133-1.078-0.251-1.625-0.369
	c-0.531-0.104-1.063-0.325-1.595-0.28C6.936,0.772,6.478,1.038,6.02,1.245C5.592,1.437,5.208,1.688,4.794,1.924
	C4.203,2.278,3.598,2.618,3.037,3.002C2.653,3.268,2.269,3.548,1.93,3.888C1.561,4.257,1.191,4.656,0.925,5.114
	C0.688,5.512,0.468,5.985,0.601,6.442C0.645,6.626,0.742,6.768,0.869,6.886z"/>
</svg>
