<?xml version="1.0" encoding="utf-8"?>
<!-- Generator: Adobe Illustrator 16.0.0, SVG Export Plug-In . SVG Version: 6.00 Build 0)  -->
<!DOCTYPE svg PUBLIC "-//W3C//DTD SVG 1.1//EN" "http://www.w3.org/Graphics/SVG/1.1/DTD/svg11.dtd">
<svg version="1.1" id="Layer_1" xmlns="http://www.w3.org/2000/svg" xmlns:xlink="http://www.w3.org/1999/xlink" x="0px" y="0px"
	 width="37.292px" height="20.25px" viewBox="0 0 37.292 20.25" preserveAspectRatio="none" enable-background="new 0 0 37.292 20.25" xml:space="preserve">
<path fill-rule="evenodd" clip-rule="evenodd" fill="#0f3461" d="M36.482,3.821c-0.144-0.195-0.412-0.195-0.576-0.37
	c-0.227-0.258-0.36-0.495-0.546-0.783c-0.124-0.216-0.062-0.535-0.257-0.689c-0.237-0.206-0.588-0.258-0.907-0.258
	c-0.771-0.021-1.544,0.248-2.316,0.185c-1.04-0.082-2.028-0.474-3.068-0.628c-0.7-0.103-1.431-0.237-2.131-0.133
	c-1.359,0.195-2.626,0.957-3.995,1.102c-1.545,0.227-2.636-0.021-3.799-0.175c-0.794-0.052-1.751-0.175-2.533-0.31
	c-0.433-0.072-0.845-0.226-1.257-0.391c-0.401-0.154-0.721-0.556-1.143-0.576c-0.793-0.052-1.555,0.247-2.337,0.371
	c-0.577,0.082-1.153,0.267-1.74,0.237C9.083,1.37,8.312,1.124,7.539,0.958c-0.494-0.093-0.988-0.216-1.472-0.33
	C5.634,0.536,5.223,0.32,4.79,0.32C4.44,0.331,4.1,0.474,3.801,0.66C3.482,0.876,3.338,1.298,2.999,1.483
	c-0.196,0.113-0.453-0.052-0.68-0.01c-0.371,0.062-0.783,0.103-1.081,0.34C0.929,2.05,0.712,2.43,0.589,2.812
	C0.497,3.121,0.527,3.46,0.62,3.78c0.103,0.401,0.494,0.71,0.536,1.122c0.002,0.021,0.003,0.041,0.002,0.062l0,0
	c-0.002,0.053-0.014,0.104-0.026,0.15c-0.06,0.183-0.206,0.349-0.326,0.498C0.527,5.953,0.362,6.271,0.826,6.713
	c0.113,0.114,0.257,0.176,0.38,0.278c0.103,0.093,0.165,0.237,0.289,0.31c0.113,0.071,0.268,0.041,0.391,0.103
	c0.186,0.082,0.35,0.237,0.546,0.319c0.165,0.072,0.34,0.062,0.504,0.123C3.071,7.888,3.184,8,3.317,8.021
	C3.42,8.042,3.544,7.918,3.626,7.98c0.154,0.113,0.062,0.227,0.154,0.382c0.083,0.144,0.216,0.35,0.34,0.463
	c0.103,0.083,0.268,0.113,0.33,0.227c0.082,0.145,0.062,0.299,0.082,0.463c0.042,0.309-0.01,0.658,0.155,0.938
	c0.083,0.143,0.309,0.195,0.474,0.143c0.134-0.041,0.227-0.215,0.237-0.359c0.021-0.361-0.154-0.721-0.134-1.092
	c0.01-0.102,0.124-0.247,0.226-0.226c0.196,0.041,0.35,0.207,0.464,0.361c0.144,0.186,0.154,0.463,0.288,0.658
	c0.134,0.176,0.268,0.412,0.494,0.434c0.196,0.029,0.402-0.166,0.515-0.33c0.133-0.195,0.133-0.453,0.185-0.689
	c0.031-0.176-0.062-0.402,0.041-0.546C7.591,8.639,7.848,8.65,8.002,8.537c0.134-0.103,0.175-0.319,0.33-0.381
	c0.165-0.072,0.371-0.042,0.535,0.021c0.134,0.052,0.206,0.195,0.319,0.288c0.144,0.124,0.257,0.351,0.443,0.351
	c0.391-0.011,0.721-0.289,1.102-0.392c0.206-0.062,0.433-0.165,0.649-0.093c0.206,0.062,0.298,0.329,0.484,0.463
	c0.123,0.083,0.319,0.063,0.433,0.165c0.123,0.113,0.153,0.289,0.226,0.422c0.083,0.156,0.207,0.279,0.237,0.443
	c0.062,0.248-0.01,0.506,0.041,0.752c0.031,0.205,0.145,0.381,0.351,0.453c0.278,0.104,0.617,0.113,0.741-0.176
	c0.165-0.371,0.093-0.813,0.236-1.184c0.072-0.176,0.227-0.361,0.412-0.402c0.175-0.041,0.381,0.113,0.556,0.166
	c0.31,0.082,0.464,0.186,0.629-0.063c0.154-0.227,0.185-0.545,0.401-0.71c0.329-0.246,0.73-0.411,1.143-0.453
	c0.34-0.03,0.7,0.104,0.999,0.269c0.257,0.144,0.37,0.463,0.597,0.649c0.104,0.092,0.227,0.195,0.36,0.174
	c0.124-0.02,0.145-0.195,0.227-0.277c0.083-0.092,0.145-0.237,0.258-0.248c0.236-0.03,0.464,0.135,0.7,0.113
	c0.144-0.01,0.268-0.103,0.36-0.206c0.257-0.267,0.381-0.689,0.7-0.885c0.288-0.165,0.659-0.196,0.988-0.134
	c0.195,0.03,0.268,0.288,0.433,0.37c0.144,0.082,0.309,0.113,0.474,0.124c0.113,0.01,0.227-0.093,0.329-0.052
	c0.145,0.062,0.319,0.175,0.351,0.33c0.195,0.917,0.185,1.874,0.309,2.799c0.052,0.361,0.154,0.711,0.227,1.072
	c0.041,0.164,0.062,0.34,0.123,0.504c0.083,0.217,0.237,0.391,0.289,0.607c0.103,0.484,0.103,0.988,0.154,1.482
	c0.052,0.268,0.134,0.535,0.175,0.814c0.031,0.205-0.072,0.441,0.031,0.627c0.051,0.104,0.298,0.104,0.329-0.01
	c0.145-0.557,0.083-1.152,0.134-1.73c0.165,0.639,0.351,1.277,0.494,1.926c0.093,0.443,0.134,0.885,0.196,1.328
	c0.071,0.557,0.123,1.113,0.216,1.668c0.01,0.123-0.011,0.443,0.093,0.361c0.195-0.154,0.309-0.422,0.319-0.68
	c0.03-0.957-0.154-1.916-0.175-2.883c-0.021-0.773,0.082-1.545,0.051-2.328c-0.021-0.33-0.195-0.648-0.186-0.988
	c0.021-0.432,0.206-0.844,0.269-1.287c0.062-0.504,0.01-1.02,0.092-1.523c0.093-0.525-0.113-1.01,0.052-1.576
	c0.217-0.298,0.36,0.339,0.443,0.701c0.062,0.309,0,0.813,0.03,1.121c0.011,0.217,0.041,0.434,0.113,0.639
	c0.021,0.072,0.134,0.104,0.154,0.176c0.083,0.34,0.134,0.68,0.176,1.02c0.041,0.463,0.01,0.926,0.051,1.389
	c0.021,0.156-0.03,0.494,0.113,0.434c0.216-0.104,0.319-0.402,0.351-0.639c0.093-0.74,0.03-1.492,0.021-2.234
	c0-0.381-0.104-0.762-0.063-1.133c0.052-0.453,0.299-0.988,0.392-1.431c0.041-0.164-0.041-0.246,0.021-0.411
	C29.079,8.166,29.182,8,29.244,8.063c0.227,0.216,0.36,0.525,0.453,0.823c0.072,0.238-0.052,0.515,0.021,0.763
	c0.041,0.133,0.145,0.381,0.278,0.318c0.36-0.154,0.628-0.607,0.823-0.947c0.165-0.289,0.031-0.638,0.175-0.937
	c0.083-0.186,0.237-0.268,0.433-0.34c0.258-0.093,0.588-0.154,0.824-0.206c0.144-0.031,0.299,0.062,0.412,0.145
	c0.195,0.134,0.267,0.422,0.494,0.515c0.216,0.082,0.463-0.041,0.7-0.041c0.185,0.01,0.391,0.123,0.556,0.051
	c0.186-0.082,0.268-0.288,0.381-0.452c0.237-0.371,0.381-0.804,0.669-1.144c0.176-0.206,0.484-0.247,0.67-0.442
	c0.008-0.008,0.015-0.016,0.022-0.023c0.003,0.001,0.005,0.002,0.008,0.003c0.059-0.067,0.109-0.15,0.156-0.241
	c0.014-0.025,0.027-0.052,0.04-0.079c0.004-0.009,0.009-0.019,0.013-0.029c0.015-0.031,0.029-0.064,0.043-0.097
	c0.074-0.178,0.139-0.363,0.201-0.512c0.015-0.028,0.032-0.025,0.052-0.007V5.19c0.072,0.063,0.154,0.31,0.186,0.227
	c0.123-0.093,0.062-0.7,0.01-0.823C36.76,4.387,36.616,4.006,36.482,3.821z"/>
</svg>
