<?xml version="1.0" encoding="utf-8"?>
<!-- Generator: Adobe Illustrator 16.0.0, SVG Export Plug-In . SVG Version: 6.00 Build 0)  -->
<!DOCTYPE svg PUBLIC "-//W3C//DTD SVG 1.1//EN" "http://www.w3.org/Graphics/SVG/1.1/DTD/svg11.dtd">
<svg version="1.1" id="Layer_2" xmlns="http://www.w3.org/2000/svg" xmlns:xlink="http://www.w3.org/1999/xlink" x="0px" y="0px"
	 width="420px" height="370px" viewBox="0 0 420 370" enable-background="new 0 0 420 370" xml:space="preserve">
<g>
	<g>
		<path fill="#FFFFFF" d="M113.822,83.354c1.257,2.583,2.875,5.042,4.861,7.306c3.996,4.548,8.783,7.997,13.968,10.314
			c5.388,2.405,11.215,3.593,17.045,3.535c15.852-0.158,29.628-7.872,40.156-19.326c0.591,0.949,1.201,1.881,1.836,2.792
			c4.842,6.959,10.955,12.767,18.225,16.349l0.585,0.289l0.585-0.289c7.27-3.582,13.382-9.39,18.225-16.349
			c0.635-0.91,1.247-1.842,1.839-2.792c10.525,11.454,24.301,19.168,40.153,19.326c5.83,0.058,11.656-1.129,17.045-3.535
			c5.188-2.317,9.972-5.766,13.969-10.314c1.986-2.264,3.604-4.722,4.86-7.306c3.351-4.886,3.294-14.082,3.294-14.082
			c0.005-0.799-0.016-1.596-0.069-2.39c-1.033-15.843-13.722-30.15-30.314-29.073c-12.821,0.835-24.379,11.11-23.508,24.534
			c0.359,5.483,2.812,10.835,7.271,14.75c3.621,3.177,8.186,4.589,12.64,4.301c3.257-0.214,6.589-1.274,9.319-3.28
			c1.484-1.09,3.255-2.741,3.303-4.722c0.046-2.159-1.663-3.948-3.822-3.995c-2.161-0.051-3.947,1.661-3.997,3.821
			c-0.034,1.417,0.696,2.677,1.813,3.388c-2.075,1.273-4.412,1.995-6.783,2.15c-3.784,0.244-7.663-0.952-10.735-3.649
			c-3.906-3.43-6.054-8.119-6.367-12.93c-0.78-11.957,9.667-20.991,21.032-21.729c15.127-0.982,26.576,12.212,27.515,26.599
			c0.499,7.71-1.939,15.613-7.438,21.873c-3.733,4.253-8.207,7.478-13.057,9.645c-5.04,2.25-10.494,3.36-15.946,3.305
			c-15.313-0.156-28.636-7.786-38.766-19.057c3.679-6.477,6.381-13.638,8.033-20.769l0.258-1.121l-1.083-0.411
			c-7.408-2.816-15.056-7.014-20.48-13.08c-4.217-4.717-7.098-10.592-7.463-17.853V16.616c2.242-0.597,3.869-2.661,3.812-5.08
			c-0.063-2.836-2.417-5.083-5.252-5.02c-2.836,0.063-5.083,2.414-5.02,5.252c0.053,2.339,1.659,4.276,3.813,4.847v12.969
			c-0.369,7.259-3.25,13.13-7.464,17.847c-5.425,6.065-13.072,10.263-20.48,13.08l-1.082,0.411l0.261,1.121
			c1.651,7.131,4.351,14.292,8.03,20.769c-10.131,11.271-23.452,18.901-38.762,19.057c-5.456,0.055-10.908-1.055-15.95-3.305
			c-4.85-2.167-9.323-5.391-13.058-9.645c-5.497-6.26-7.936-14.163-7.434-21.873c0.936-14.387,12.384-27.581,27.512-26.599
			c11.365,0.738,21.811,9.772,21.032,21.729c-0.313,4.812-2.461,9.5-6.368,12.93c-3.071,2.697-6.95,3.893-10.735,3.649
			c-2.369-0.155-4.703-0.877-6.781-2.15c1.116-0.71,1.845-1.97,1.812-3.388c-0.047-2.16-1.84-3.872-3.996-3.821
			c-2.162,0.047-3.871,1.836-3.821,3.995c0.044,1.981,1.814,3.632,3.299,4.722c2.731,2.006,6.063,3.066,9.324,3.28
			c4.45,0.289,9.015-1.124,12.639-4.301c4.459-3.916,6.909-9.268,7.267-14.75c0.874-13.424-10.686-23.699-23.508-24.534
			c-16.59-1.077-29.282,13.23-30.313,29.073c-0.053,0.793-0.075,1.59-0.07,2.39C110.637,78.306,113.822,83.354,113.822,83.354z
			 M190.28,80.681c-3.13-5.691-5.492-11.9-7.028-18.119c7.4-2.938,14.944-7.241,20.425-13.371c1.542-1.727,2.922-3.594,4.087-5.614
			c-2.591,13.194-8.649,26.404-17.329,36.918L190.28,80.681z M227.137,86.464c-4.471,6.423-10.051,11.801-16.638,15.194
			c-6.587-3.394-12.167-8.771-16.637-15.194c-0.76-1.091-1.484-2.209-2.178-3.355c0.266-0.31,0.529-0.621,0.788-0.935
			c9.117-11.043,15.43-24.97,18.027-38.83c2.597,13.86,8.912,27.786,18.028,38.83c0.26,0.313,0.521,0.625,0.787,0.935
			C228.622,84.255,227.897,85.373,227.137,86.464z M230.719,80.681l-0.155-0.186c-8.68-10.514-14.736-23.724-17.329-36.918
			c1.166,2.02,2.544,3.887,4.087,5.614c5.479,6.129,13.025,10.433,20.425,13.371C236.21,68.781,233.849,74.99,230.719,80.681z"/>
		<path fill="#FFFFFF" d="M350.208,115.782c4.418,0,9.541-0.71,12.92-3.646c2.4-2.083,3.564-4.941,3.564-8.44
			c0-1.859-0.435-3.704-1.283-5.316c-1.446-2.738-4.076-4.691-7.179-5.119c-1.576-0.219-3.174-0.022-4.59,0.583
			c-1.867,0.802-3.421,2.304-4.218,4.495c-0.315,0.866-0.445,1.779-0.401,2.661c0.056,1.149,0.404,2.262,1.021,3.191
			c0.639,0.957,1.554,1.726,2.725,2.153c2.462,0.896,6.531-0.089,6.531-3.338c0-1.729-1.399-3.127-3.129-3.127
			c-1.727,0-3.127,2.167-3.127,3.127c0,0.96,0.02,0.386,0.053,0.569c-0.341-0.222-0.628-0.51-0.847-0.844
			c-0.355-0.532-0.555-1.182-0.589-1.856c-0.027-0.541,0.054-1.104,0.247-1.637c0.524-1.448,1.546-2.436,2.771-2.96
			c0.976-0.417,2.086-0.552,3.189-0.4c2.48,0.344,4.452,1.981,5.441,4.243c0.485,1.11,0.736,2.35,0.736,3.577
			c0,2.714-0.866,4.897-2.645,6.445c-2.857,2.481-7.5,2.992-11.191,2.992h-8.017c-6.224,0-13.464-2.687-18.334-7.47
			c-0.511-0.502-1.343-0.502-1.856,0c-4.87,4.786-12.112,7.47-18.336,7.47H113.461c-6.227,0-13.466-2.681-18.338-7.47
			c-0.514-0.505-1.34-0.505-1.856,0c-4.87,4.789-12.112,7.47-18.335,7.47h-8.016c-3.691,0-8.333-0.511-11.19-2.992
			c-1.779-1.548-2.645-3.731-2.645-6.445c0-1.227,0.244-2.461,0.735-3.577c0.997-2.267,2.963-3.898,5.441-4.243
			c1.104-0.152,2.217-0.017,3.191,0.4c1.223,0.524,2.245,1.512,2.769,2.96c0.194,0.533,0.275,1.096,0.25,1.637
			c-0.033,0.675-0.235,1.324-0.591,1.856c-0.219,0.333-0.502,0.622-0.846,0.844c0.034-0.183,0.053,0.391,0.053-0.569
			c0-0.959-1.401-3.127-3.127-3.127c-1.729,0-3.13,1.398-3.13,3.127c0,3.249,4.071,4.235,6.532,3.338
			c1.17-0.428,2.086-1.197,2.725-2.153c0.616-0.93,0.965-2.042,1.021-3.191c0.044-0.882-0.086-1.795-0.402-2.661
			c-0.794-2.191-2.348-3.693-4.218-4.495c-1.415-0.604-3.014-0.802-4.59-0.583c-3.102,0.428-5.727,2.375-7.178,5.119
			c-0.852,1.618-1.285,3.457-1.285,5.316c0,3.499,1.166,6.357,3.566,8.44c3.382,2.936,8.501,3.646,12.919,3.646H350.208z"/>
		<path fill="#FFFFFF" d="M408.042,123.768c2.227,0,4.277-0.741,5.924-1.984c0.213-0.164,0.503-0.161,0.714,0.005
			c0.212,0.164,0.282,0.444,0.179,0.691c-1.503,3.51-4.988,5.971-9.052,5.971H15.193c-4.063,0-7.548-2.461-9.049-5.971
			c-0.107-0.247-0.033-0.527,0.176-0.691c0.212-0.167,0.501-0.169,0.714-0.005c1.647,1.243,3.701,1.984,5.925,1.984H408.042z"/>
	</g>
	<g>
		<path fill="#FFFFFF" d="M110.529,302.842c-0.005,0.8,0.017,1.595,0.07,2.389c1.032,15.844,13.724,30.15,30.313,29.075
			c12.822-0.836,24.381-11.111,23.508-24.535c-0.358-5.483-2.808-10.836-7.267-14.751c-3.624-3.177-8.188-4.589-12.639-4.301
			c-3.26,0.214-6.593,1.273-9.324,3.28c-1.484,1.09-3.254,2.742-3.299,4.723c-0.05,2.158,1.659,3.948,3.821,3.996
			c2.156,0.049,3.948-1.663,3.996-3.822c0.033-1.418-0.696-2.677-1.812-3.388c2.078-1.274,4.412-1.995,6.781-2.15
			c3.785-0.244,7.665,0.952,10.735,3.649c3.907,3.429,6.055,8.119,6.368,12.931c0.779,11.955-9.667,20.99-21.032,21.728
			c-15.128,0.983-26.577-12.211-27.512-26.598c-0.502-7.711,1.937-15.613,7.434-21.873c3.735-4.255,8.208-7.478,13.058-9.646
			c5.042-2.25,10.494-3.36,15.95-3.305c15.31,0.156,28.631,7.786,38.762,19.057c-3.679,6.476-6.379,13.639-8.03,20.77l-0.261,1.121
			l1.082,0.41c7.409,2.816,15.056,7.016,20.48,13.08c4.215,4.718,7.095,10.589,7.464,17.847v12.97
			c-2.154,0.57-3.76,2.508-3.813,4.847c-0.064,2.839,2.183,5.188,5.02,5.253c2.835,0.063,5.188-2.184,5.252-5.02
			c0.057-2.419-1.57-4.483-3.812-5.08v-12.964c0.366-7.262,3.247-13.135,7.463-17.853c5.425-6.064,13.072-10.264,20.48-13.08
			l1.083-0.41l-0.258-1.121c-1.652-7.131-4.354-14.294-8.033-20.77c10.13-11.271,23.452-18.9,38.766-19.057
			c5.452-0.056,10.906,1.055,15.946,3.305c4.85,2.168,9.323,5.391,13.057,9.646c5.498,6.26,7.937,14.162,7.438,21.873
			c-0.938,14.387-12.388,27.581-27.515,26.598c-11.365-0.737-21.813-9.772-21.032-21.728c0.313-4.812,2.461-9.502,6.367-12.931
			c3.072-2.697,6.951-3.894,10.735-3.649c2.371,0.155,4.708,0.876,6.783,2.15c-1.116,0.711-1.847,1.97-1.813,3.388
			c0.05,2.159,1.836,3.871,3.997,3.822c2.159-0.048,3.868-1.838,3.822-3.996c-0.048-1.98-1.818-3.633-3.303-4.723
			c-2.73-2.007-6.063-3.066-9.319-3.28c-4.454-0.288-9.019,1.124-12.64,4.301c-4.459,3.915-6.911,9.268-7.271,14.751
			c-0.871,13.424,10.687,23.699,23.508,24.535c16.593,1.075,29.281-13.231,30.314-29.075c0.054-0.794,0.074-1.589,0.069-2.389
			c0,0,0.057-9.196-3.294-14.082c-1.257-2.583-2.874-5.041-4.86-7.306c-3.997-4.548-8.78-7.997-13.969-10.313
			c-5.389-2.406-11.215-3.593-17.045-3.535c-15.853,0.158-29.628,7.872-40.153,19.325c-0.592-0.947-1.204-1.88-1.839-2.79
			c-4.843-6.96-10.955-12.767-18.225-16.35l-0.585-0.288l-0.585,0.288c-7.27,3.583-13.383,9.39-18.225,16.35
			c-0.635,0.91-1.246,1.843-1.836,2.79c-10.527-11.453-24.304-19.167-40.156-19.325c-5.83-0.058-11.657,1.129-17.045,3.535
			c-5.186,2.316-9.972,5.766-13.968,10.313c-1.986,2.265-3.604,4.723-4.861,7.306C113.822,288.76,110.637,293.808,110.529,302.842z
			 M190.435,291.619c8.68,10.514,14.737,23.724,17.329,36.917c-1.165-2.02-2.544-3.888-4.087-5.612
			c-5.48-6.13-13.025-10.433-20.425-13.371c1.537-6.218,3.898-12.428,7.028-18.119L190.435,291.619z M229.315,289.005
			c-0.266,0.312-0.527,0.621-0.787,0.935c-9.116,11.043-15.431,24.97-18.028,38.83c-2.597-13.86-8.91-27.787-18.027-38.83
			c-0.258-0.313-0.521-0.623-0.788-0.935c0.693-1.147,1.417-2.265,2.178-3.355c4.47-6.423,10.05-11.801,16.637-15.194
			c6.587,3.394,12.167,8.771,16.638,15.194C227.897,286.741,228.622,287.858,229.315,289.005z M237.748,309.552
			c-7.399,2.938-14.945,7.241-20.425,13.371c-1.543,1.725-2.922,3.593-4.087,5.612c2.592-13.193,8.649-26.403,17.329-36.917
			l0.155-0.186C233.849,297.125,236.21,303.334,237.748,309.552z"/>
		<path fill="#FFFFFF" d="M350.208,256.332c4.418,0,9.541,0.711,12.92,3.646c2.4,2.084,3.564,4.941,3.564,8.44
			c0,1.859-0.435,3.705-1.283,5.316c-1.446,2.738-4.076,4.693-7.179,5.12c-1.576,0.218-3.174,0.022-4.59-0.583
			c-1.867-0.802-3.421-2.303-4.218-4.495c-0.315-0.865-0.445-1.778-0.401-2.661c0.056-1.148,0.404-2.261,1.021-3.191
			c0.639-0.957,1.554-1.726,2.725-2.151c2.462-0.896,6.531,0.088,6.531,3.337c0,1.729-1.399,3.128-3.129,3.128
			c-1.727,0-3.127-2.167-3.127-3.128s0.02-0.385,0.053-0.569c-0.341,0.223-0.628,0.512-0.847,0.844
			c-0.355,0.534-0.555,1.183-0.589,1.856c-0.027,0.541,0.054,1.104,0.247,1.638c0.524,1.448,1.546,2.436,2.771,2.961
			c0.976,0.415,2.086,0.552,3.189,0.399c2.48-0.345,4.452-1.981,5.441-4.243c0.485-1.11,0.736-2.35,0.736-3.577
			c0-2.714-0.866-4.896-2.645-6.444c-2.857-2.481-7.5-2.991-11.191-2.991h-8.017c-6.224,0-13.464,2.685-18.334,7.47
			c-0.511,0.502-1.343,0.502-1.856,0c-4.87-4.787-12.112-7.47-18.336-7.47H113.461c-6.227,0-13.466,2.68-18.338,7.47
			c-0.514,0.504-1.34,0.504-1.856,0c-4.87-4.79-12.112-7.47-18.335-7.47h-8.016c-3.691,0-8.333,0.51-11.19,2.991
			c-1.779,1.548-2.645,3.73-2.645,6.444c0,1.228,0.244,2.462,0.735,3.577c0.997,2.267,2.963,3.898,5.441,4.243
			c1.104,0.152,2.217,0.016,3.191-0.399c1.223-0.525,2.245-1.513,2.769-2.961c0.194-0.533,0.275-1.097,0.25-1.638
			c-0.033-0.674-0.235-1.322-0.591-1.856c-0.219-0.332-0.502-0.621-0.846-0.844c0.034,0.185,0.053-0.392,0.053,0.569
			s-1.401,3.128-3.127,3.128c-1.729,0-3.13-1.399-3.13-3.128c0-3.249,4.071-4.233,6.532-3.337c1.17,0.426,2.086,1.194,2.725,2.151
			c0.616,0.931,0.965,2.043,1.021,3.191c0.044,0.883-0.086,1.796-0.402,2.661c-0.794,2.192-2.348,3.693-4.218,4.495
			c-1.415,0.605-3.014,0.801-4.59,0.583c-3.102-0.427-5.727-2.376-7.178-5.12c-0.852-1.616-1.285-3.457-1.285-5.316
			c0-3.499,1.166-6.356,3.566-8.44c3.382-2.936,8.501-3.646,12.919-3.646H350.208z"/>
		<path fill="#FFFFFF" d="M408.042,248.346c2.227,0,4.277,0.741,5.924,1.985c0.213,0.163,0.503,0.16,0.714-0.007
			c0.212-0.164,0.282-0.444,0.179-0.69c-1.503-3.51-4.988-5.972-9.052-5.972H15.193c-4.063,0-7.548,2.462-9.049,5.972
			c-0.107,0.246-0.033,0.526,0.176,0.69c0.212,0.167,0.501,0.17,0.714,0.007c1.647-1.244,3.701-1.985,5.925-1.985H408.042z"/>
	</g>
	<g>
		<path fill="#FFFFFF" d="M69.794,166.802c0-0.852-0.213-1.42-0.639-1.989l-1.776-2.06c-0.142-0.213-0.497-0.426-0.497-0.71
			c0-0.142,0.142-0.355,0.426-0.355h8.524c0.497,0,0.71,0.498,0.852,1.208l6.535,30.542h0.142v-26.636
			c0-0.852-0.142-1.42-0.639-1.917l-1.989-2.131c-0.142-0.213-0.497-0.426-0.497-0.71c0-0.142,0.142-0.355,0.426-0.355h9.375
			c0.284,0,0.426,0.213,0.426,0.355c0,0.284-0.284,0.497-0.497,0.71l-1.776,2.06c-0.426,0.568-0.639,1.137-0.639,1.989v47.377
			c0,0.497-0.213,0.781-0.71,0.781h-2.983c-0.64,0-1.208-0.71-1.421-1.775l-8.311-38.711h-0.142v35.373
			c0,0.853,0.213,1.421,0.71,1.918l1.918,2.131c0.213,0.213,0.497,0.426,0.497,0.71c0,0.143-0.142,0.355-0.426,0.355h-9.376
			c-0.284,0-0.426-0.213-0.426-0.355c0-0.284,0.355-0.497,0.497-0.71l1.776-2.06c0.426-0.568,0.639-1.137,0.639-1.989V166.802z"/>
		<path fill="#FFFFFF" d="M119.374,186.904c0,13.425-0.923,28.057-9.518,28.057c-8.523,0-9.447-14.632-9.447-28.057
			c0-10.229,0.923-25.216,9.447-25.216C118.45,161.688,119.374,176.675,119.374,186.904z M106.233,186.975
			c0,18.468,1.563,24.434,3.622,24.434c2.131,0,3.694-5.966,3.694-24.434c0-15.769-1.563-21.735-3.694-21.735
			C107.796,165.24,106.233,171.206,106.233,186.975z"/>
		<path fill="#FFFFFF" d="M138.055,209.846c0,0.853,0.142,1.492,0.64,1.989l2.131,2.06c0.142,0.213,0.497,0.426,0.497,0.64
			c0,0.213-0.142,0.426-0.426,0.426h-11.152c-0.284,0-0.426-0.213-0.426-0.426c0-0.214,0.355-0.427,0.497-0.64l2.131-2.06
			c0.497-0.497,0.639-1.137,0.639-1.989v-43.044c0-0.852-0.142-1.492-0.639-1.989l-2.131-2.06c-0.142-0.213-0.497-0.426-0.497-0.639
			c0-0.213,0.142-0.426,0.426-0.426h8.879c7.387,0,11.223,3.907,11.223,13.141c0,7.885-2.77,11.081-5.256,12.644
			c2.415,1.278,4.546,4.049,4.546,7.955v14.846c0,0.497,0.284,0.923,0.64,1.278l2.273,2.415c0.284,0.284,0.568,0.568,0.568,0.781
			s-0.355,0.213-0.71,0.213h-3.694c-3.267,0-4.546-2.131-4.546-4.546v-15.271c0-3.125-1.917-5.469-4.404-5.469h-1.208V209.846z
			 M138.055,186.123h1.065c3.48,0,4.901-2.771,4.901-11.294c0-7.245-1.421-9.589-4.901-9.589h-1.065V186.123z"/>
		<path fill="#FFFFFF" d="M168.6,165.098h-2.628c-0.426,0-0.639,0.355-0.781,0.781l-3.693,14.135
			c-0.071,0.284-0.284,0.426-0.568,0.426s-0.355-0.142-0.355-0.497v-17.971c0-0.142,0.142-0.284,0.355-0.284h20.812
			c0.213,0,0.355,0.142,0.355,0.284v17.971c0,0.355-0.071,0.497-0.355,0.497s-0.497-0.142-0.568-0.426l-3.694-14.135
			c-0.142-0.426-0.355-0.781-0.781-0.781h-2.628v44.749c0,0.853,0.071,1.492,0.568,1.989l2.131,2.06
			c0.213,0.213,0.497,0.426,0.497,0.64c0,0.213-0.071,0.426-0.426,0.426h-11.01c-0.355,0-0.426-0.213-0.426-0.426
			c0-0.214,0.284-0.427,0.498-0.64l2.131-2.06c0.497-0.497,0.568-1.137,0.568-1.989V165.098z"/>
		<path fill="#FFFFFF" d="M206.885,185.98v-19.178c0-0.852-0.142-1.492-0.639-1.989l-2.131-2.06
			c-0.142-0.213-0.497-0.426-0.497-0.639c0-0.213,0.142-0.426,0.426-0.426h11.152c0.284,0,0.426,0.213,0.426,0.426
			c0,0.213-0.354,0.426-0.497,0.639l-2.131,2.06c-0.497,0.497-0.639,1.137-0.639,1.989v43.044c0,0.853,0.142,1.492,0.639,1.989
			l2.131,2.06c0.143,0.213,0.497,0.426,0.497,0.64c0,0.213-0.142,0.426-0.426,0.426h-11.152c-0.284,0-0.426-0.213-0.426-0.426
			c0-0.214,0.355-0.427,0.497-0.64l2.131-2.06c0.497-0.497,0.639-1.137,0.639-1.989v-20.102h-7.245v20.102
			c0,0.853,0.142,1.492,0.64,1.989l2.131,2.06c0.142,0.213,0.497,0.426,0.497,0.64c0,0.213-0.142,0.426-0.426,0.426H191.33
			c-0.284,0-0.426-0.213-0.426-0.426c0-0.214,0.355-0.427,0.497-0.64l2.131-2.06c0.497-0.497,0.639-1.137,0.639-1.989v-43.044
			c0-0.852-0.142-1.492-0.639-1.989l-2.131-2.06c-0.142-0.213-0.497-0.426-0.497-0.639c0-0.213,0.142-0.426,0.426-0.426h11.152
			c0.284,0,0.426,0.213,0.426,0.426c0,0.213-0.355,0.426-0.497,0.639l-2.131,2.06c-0.498,0.497-0.64,1.137-0.64,1.989v19.178
			H206.885z"/>
		<path fill="#FFFFFF" d="M243.326,166.802c0-0.852-0.143-1.492-0.64-1.989l-2.131-2.06c-0.143-0.213-0.497-0.426-0.497-0.639
			c0-0.213,0.142-0.426,0.426-0.426h10.726c5.54,0,9.376,2.913,9.376,13.78c0,9.163-2.983,14.704-9.376,14.704h-2.415v19.675
			c0,0.853,0.071,1.563,0.64,1.989l2.628,2.06c0.213,0.213,0.497,0.426,0.497,0.64c0,0.213-0.142,0.426-0.426,0.426h-11.649
			c-0.284,0-0.426-0.213-0.426-0.426c0-0.214,0.354-0.355,0.497-0.64l2.131-2.06c0.497-0.497,0.64-1.137,0.64-1.989V166.802z
			 M248.794,186.62h2.06c2.983,0,3.907-3.268,3.907-11.152s-0.924-10.228-3.907-10.228h-2.06V186.62z"/>
		<path fill="#FFFFFF" d="M290.348,186.904c0,13.425-0.924,28.057-9.519,28.057c-8.523,0-9.446-14.632-9.446-28.057
			c0-10.229,0.923-25.216,9.446-25.216C289.424,161.688,290.348,176.675,290.348,186.904z M277.208,186.975
			c0,18.468,1.563,24.434,3.622,24.434c2.131,0,3.693-5.966,3.693-24.434c0-15.769-1.563-21.735-3.693-21.735
			C278.77,165.24,277.208,171.206,277.208,186.975z"/>
		<path fill="#FFFFFF" d="M303.561,166.802c0-0.852-0.143-1.492-0.64-1.989l-2.131-2.06c-0.143-0.213-0.497-0.426-0.497-0.639
			c0-0.213,0.142-0.426,0.426-0.426h11.152c0.283,0,0.426,0.213,0.426,0.426c0,0.213-0.355,0.426-0.497,0.639l-2.131,2.06
			c-0.497,0.497-0.64,1.137-0.64,1.989v44.606h2.842c0.852,0,1.563-0.213,1.847-1.065l4.403-13.779
			c0.143-0.284,0.143-0.497,0.427-0.497c0.213,0,0.354,0.213,0.354,0.497v17.402c0,0.639-0.213,0.994-0.781,0.994h-17.402
			c-0.284,0-0.426-0.213-0.426-0.426c0-0.214,0.354-0.355,0.497-0.64l2.131-2.06c0.497-0.497,0.64-1.137,0.64-1.989V166.802z"/>
		<path fill="#FFFFFF" d="M337.3,186.051h1.563c0.355,0,0.64-0.142,0.781-0.497l2.486-4.972c0.143-0.285,0.213-0.427,0.426-0.427
			c0.214,0,0.284,0.142,0.284,0.427v15.058c0,0.213-0.07,0.355-0.284,0.355c-0.283,0-0.354-0.213-0.497-0.497l-2.415-5.186
			c-0.142-0.355-0.426-0.497-0.781-0.497H337.3v21.593h4.049c0.924,0,1.634-0.426,1.918-1.278l3.835-13.638
			c0.071-0.284,0.284-0.426,0.498-0.426c0.213,0,0.354,0.213,0.354,0.426v17.828c0,0.355-0.213,0.64-0.568,0.64H328.99
			c-0.284,0-0.426-0.213-0.426-0.426c0-0.214,0.354-0.355,0.497-0.64l2.131-2.06c0.497-0.497,0.64-1.137,0.64-1.989v-43.044
			c0-0.852-0.143-1.492-0.64-1.989l-2.131-2.06c-0.143-0.213-0.497-0.426-0.497-0.639c0-0.213,0.142-0.426,0.426-0.426h18.396
			c0.284,0,0.568,0.284,0.568,0.64v17.686c0,0.284-0.142,0.426-0.354,0.426c-0.284,0-0.498-0.213-0.568-0.497l-3.836-13.354
			c-0.284-0.923-0.923-1.35-1.847-1.35H337.3V186.051z"/>
	</g>
</g>
</svg>
