<?xml version="1.0" encoding="utf-8"?>
<!-- Generator: Adobe Illustrator 16.0.0, SVG Export Plug-In . SVG Version: 6.00 Build 0)  -->
<!DOCTYPE svg PUBLIC "-//W3C//DTD SVG 1.1//EN" "http://www.w3.org/Graphics/SVG/1.1/DTD/svg11.dtd">
<svg version="1.1" xmlns="http://www.w3.org/2000/svg" xmlns:xlink="http://www.w3.org/1999/xlink" x="0px" y="0px" width="108px"
	 height="108px" viewBox="0 0 108 108" enable-background="new 0 0 108 108" xml:space="preserve">
<g id="backup" display="none">
	<path display="inline" d="M58.478,39.157l-5.608,3.295l0.037-7.388l7.522-8.315l-9.507-10.071l-9.507,10.071l7.521,8.315
		l0.041,7.388l-5.61-3.295l-0.448,3.297l5.586,7.082l-0.12,12.028h5.075l-0.12-12.028l5.586-7.082L58.478,39.157z M50.923,30.661
		l-3.719-4.183l3.729-3.845l3.707,3.845L50.923,30.661z"/>
</g>
<g id="Layer_1">
	<path fill="#FFFFFF" d="M91.919,63.43l10.07-9.507l-10.072-9.509l-8.314,7.523l-7.389,0.041l3.295-5.613l-3.295-0.447l-7.084,5.587
		l-7.885-0.079l5.475-5.587l8.957-1.056l2.015-2.648l-6.297-1.637l5.253-5.197l11.199-0.562l0.398-13.843l-13.846,0.398
		l-0.561,11.199l-5.195,5.253l-1.639-6.299l-2.646,2.014L63.3,42.42l-5.632,5.521l-0.078-7.822l5.586-7.082l-0.448-3.297
		l-5.608,3.295l0.037-7.388l7.522-8.315L55.172,7.261l-9.507,10.071l7.521,8.315l0.041,7.388l-5.61-3.295l-0.448,3.297l5.586,7.082
		l-0.079,7.888l-5.587-5.477l-1.058-8.958l-2.647-2.014l-1.637,6.296l-5.197-5.25l-0.561-11.199l-13.844-0.399l0.398,13.844
		l11.198,0.562l5.253,5.195l-6.297,1.637l2.014,2.648l8.958,1.058l5.521,5.633l-7.822,0.078l-7.082-5.586l-3.296,0.448l3.294,5.608
		l-7.388-0.038l-8.315-7.522L8.511,54.077l10.071,9.508l8.315-7.521l7.389-0.041l-3.295,5.611l3.296,0.448l7.082-5.587l7.887,0.079
		l-5.476,5.587l-8.957,1.057l-2.014,2.648l6.295,1.637l-5.251,5.196l-11.2,0.562l-0.398,13.844L36.1,86.706l0.562-11.199
		l5.195-5.253l1.639,6.298l2.646-2.014l1.058-8.959l5.633-5.521l0.079,7.824l-5.587,7.08l0.448,3.297l5.609-3.295l-0.039,7.388
		l-7.522,8.317l9.507,10.07l9.509-10.071l-7.522-8.316l-0.041-7.388l5.612,3.295l0.447-3.296l-5.587-7.083l0.079-7.887l5.588,5.477
		l1.056,8.957l2.648,2.014l1.637-6.296l5.196,5.252l0.562,11.2l13.844,0.398l-0.398-13.846l-11.199-0.561l-5.253-5.195l6.299-1.639
		l-2.015-2.646l-8.959-1.059l-5.521-5.632l7.823-0.079l7.08,5.587l3.297-0.448l-3.295-5.609l7.389,0.039L91.919,63.43z
		 M78.686,25.196l5.356-0.082l-0.099,5.34l-5.584,0.33L78.686,25.196z M26.446,30.564l-0.082-5.356l5.34,0.098l0.33,5.586
		L26.446,30.564z M31.815,82.804l-5.357,0.082l0.098-5.34l5.586-0.33L31.815,82.804z M84.054,77.436l0.082,5.356l-5.34-0.1
		l-0.33-5.584L84.054,77.436z M92.188,50.204l3.846,3.729l-3.846,3.706l-4.182-3.715L92.188,50.204z M51.454,17.061l3.73-3.845
		l3.707,3.845l-3.718,4.183L51.454,17.061z M18.312,57.796l-3.846-3.729l3.845-3.707l4.184,3.717L18.312,57.796z M59.046,90.938
		l-3.729,3.846l-3.706-3.846l3.716-4.183L59.046,90.938z"/>
</g>
</svg>
