<?xml version="1.0" encoding="utf-8"?>
<!-- Generator: Adobe Illustrator 16.0.0, SVG Export Plug-In . SVG Version: 6.00 Build 0)  -->
<!DOCTYPE svg PUBLIC "-//W3C//DTD SVG 1.1//EN" "http://www.w3.org/Graphics/SVG/1.1/DTD/svg11.dtd">
<svg version="1.1" id="Layer_1" xmlns="http://www.w3.org/2000/svg" xmlns:xlink="http://www.w3.org/1999/xlink" x="0px" y="0px"
	 width="140.875px" height="19px" viewBox="0 0 140.875 19" enable-background="new 0 0 140.875 19" xml:space="preserve">
<path fill-rule="evenodd" clip-rule="evenodd" fill="none" stroke="#A79273" stroke-miterlimit="10" d="M134.333,0.875H69.848H6.542
	c-1.839,0-3.344,1.304-3.344,2.899v1.447c0,1.845-0.92,3.433-2.21,4.061C0.865,9.342,0.793,9.448,0.793,9.57
	s0.072,0.229,0.194,0.288c1.29,0.628,2.21,2.216,2.21,4.062v1.447c0,1.595,1.505,2.899,3.344,2.899h63.306h64.485
	c1.839,0,3.345-1.305,3.345-2.899V13.92c0-1.846,0.92-3.434,2.209-4.062c0.123-0.06,0.194-0.166,0.194-0.288
	s-0.071-0.229-0.194-0.288c-1.289-0.628-2.209-2.216-2.209-4.061V3.774C137.678,2.179,136.172,0.875,134.333,0.875z"/>
<rect x="17.059" y="4.797" fill="none" width="108.036" height="19.169"/>
<text transform="matrix(1 0 0 1 21.873 14.8984)" display="none" fill="#A79273" font-family="'BirchStd'" font-size="13.4694" letter-spacing="1">YEARS IN THE MAKING</text>
<g>
	<path fill="#A79273" d="M23.53,10.709l-0.997-4.945c-0.014-0.108-0.067-0.216-0.148-0.311l-0.377-0.458
		c-0.027-0.04-0.081-0.094-0.081-0.147c0-0.041,0.041-0.055,0.095-0.055h1.926c0.067,0,0.108,0.014,0.108,0.067
		c0,0.041-0.041,0.095-0.094,0.135l-0.417,0.391c-0.054,0.055-0.067,0.148-0.041,0.257l0.606,2.978h0.027l0.633-2.978
		c0.027-0.108,0.013-0.202-0.054-0.257l-0.431-0.391c-0.054-0.04-0.094-0.094-0.094-0.135c0-0.054,0.054-0.067,0.121-0.067h1.779
		c0.067,0,0.108,0.014,0.108,0.055c0,0.054-0.041,0.094-0.095,0.147l-0.444,0.458c-0.067,0.081-0.108,0.189-0.135,0.311
		l-0.957,4.527v3.639c0,0.16,0.027,0.281,0.121,0.377l0.404,0.391c0.027,0.039,0.094,0.08,0.094,0.121s-0.027,0.08-0.081,0.08
		h-2.115c-0.054,0-0.081-0.039-0.081-0.08s0.067-0.082,0.094-0.121l0.404-0.391c0.094-0.096,0.121-0.217,0.121-0.377V10.709z"/>
	<path fill="#A79273" d="M29.417,9.416h0.296c0.067,0,0.122-0.027,0.148-0.096l0.472-0.943c0.027-0.053,0.04-0.08,0.081-0.08
		s0.054,0.027,0.054,0.08v2.857c0,0.041-0.013,0.066-0.054,0.066c-0.054,0-0.067-0.039-0.094-0.094l-0.458-0.984
		c-0.027-0.066-0.081-0.094-0.148-0.094h-0.296v4.096h0.768c0.175,0,0.31-0.08,0.364-0.242l0.728-2.586
		c0.014-0.055,0.054-0.082,0.094-0.082s0.067,0.041,0.067,0.082v3.381c0,0.068-0.041,0.121-0.108,0.121H27.84
		c-0.054,0-0.081-0.039-0.081-0.08s0.067-0.068,0.094-0.121l0.404-0.391c0.094-0.096,0.121-0.217,0.121-0.377V5.764
		c0-0.162-0.027-0.283-0.121-0.378l-0.404-0.391c-0.027-0.04-0.094-0.08-0.094-0.121c0-0.04,0.027-0.081,0.081-0.081h3.489
		c0.054,0,0.108,0.055,0.108,0.122V8.27c0,0.055-0.027,0.082-0.067,0.082c-0.054,0-0.094-0.041-0.107-0.096l-0.728-2.533
		c-0.054-0.175-0.175-0.256-0.35-0.256h-0.768V9.416z"/>
	<path fill="#A79273" d="M35.761,12.648c-0.014-0.066-0.054-0.121-0.121-0.121h-0.997c-0.041,0-0.067,0.041-0.081,0.094
		l-0.202,1.482c-0.013,0.096,0.014,0.176,0.067,0.242l0.296,0.311c0.054,0.068,0.135,0.121,0.135,0.162s-0.027,0.08-0.094,0.08
		h-1.549c-0.054,0-0.081-0.039-0.081-0.08s0.054-0.094,0.094-0.135l0.377-0.377c0.081-0.082,0.094-0.217,0.108-0.338l1.226-9.053
		c0.013-0.067,0.041-0.122,0.108-0.122h0.498c0.067,0,0.108,0.067,0.122,0.148l1.28,9.041c0.014,0.135,0.054,0.283,0.148,0.363
		l0.391,0.352c0.041,0.039,0.081,0.08,0.081,0.121s-0.027,0.08-0.095,0.08h-1.94c-0.067,0-0.094-0.039-0.094-0.08
		s0.054-0.082,0.094-0.121l0.364-0.363c0.054-0.055,0.081-0.148,0.067-0.27L35.761,12.648z M35.572,11.814
		c0.04,0,0.067-0.041,0.054-0.096l-0.472-3.301h-0.027l-0.445,3.314c-0.013,0.055,0.014,0.082,0.041,0.082H35.572z"/>
	<path fill="#A79273" d="M40.758,13.93c0,0.16,0.027,0.281,0.121,0.377l0.404,0.391c0.027,0.039,0.094,0.08,0.094,0.121
		s-0.027,0.08-0.081,0.08h-2.115c-0.054,0-0.081-0.039-0.081-0.08s0.067-0.082,0.094-0.121l0.404-0.391
		c0.094-0.096,0.121-0.217,0.121-0.377V5.764c0-0.162-0.027-0.283-0.121-0.378l-0.404-0.391c-0.027-0.04-0.094-0.08-0.094-0.121
		c0-0.04,0.027-0.081,0.081-0.081h1.684c1.401,0,2.129,0.741,2.129,2.493c0,1.495-0.525,2.102-0.997,2.399
		c0.458,0.242,0.862,0.768,0.862,1.508v2.816c0,0.094,0.054,0.176,0.121,0.242l0.431,0.459c0.054,0.053,0.108,0.107,0.108,0.148
		c0,0.039-0.067,0.039-0.135,0.039h-0.701c-0.62,0-0.862-0.404-0.862-0.861v-2.896c0-0.594-0.364-1.039-0.835-1.039h-0.229V13.93z
		 M40.758,9.428h0.202c0.66,0,0.93-0.525,0.93-2.141c0-1.375-0.27-1.819-0.93-1.819h-0.202V9.428z"/>
	<path fill="#A79273" d="M48.072,8.283c0,0.041-0.027,0.068-0.081,0.068c-0.041,0-0.067-0.041-0.081-0.096
		c-0.215-1.09-0.862-2.789-1.482-2.789c-0.337,0-0.364,0.283-0.364,0.634c0,0.66,0.175,1.32,1.172,3.436
		c0.943,1.994,1.051,2.438,1.051,3.502c0,1.428-0.741,1.859-1.24,1.859c-0.364,0-0.593-0.148-0.754-0.256
		c-0.148-0.094-0.229-0.135-0.27-0.135c-0.054,0-0.162,0.094-0.431,0.297c-0.054,0.041-0.108,0.094-0.162,0.094
		s-0.067-0.027-0.067-0.066v-3.396c0-0.039,0.014-0.094,0.067-0.094c0.041,0,0.067,0.055,0.081,0.094
		c0.243,1.078,0.661,2.789,1.456,2.789c0.256,0,0.391-0.283,0.391-0.699c0-0.904-0.404-1.887-1.172-3.504
		c-0.728-1.535-0.997-2.56-0.997-3.543c0-1.28,0.553-1.685,1.24-1.685c0.256,0,0.552,0.148,0.754,0.311
		c0.067,0.04,0.148,0.08,0.202,0.08s0.188-0.094,0.31-0.215c0.121-0.108,0.202-0.176,0.283-0.176c0.067,0,0.094,0.067,0.094,0.148
		V8.283z"/>
	<path fill="#A79273" d="M53.701,5.764c0-0.162-0.027-0.283-0.121-0.378l-0.404-0.391c-0.027-0.04-0.094-0.08-0.094-0.121
		c0-0.04,0.027-0.081,0.081-0.081h2.115c0.054,0,0.081,0.041,0.081,0.081c0,0.041-0.067,0.081-0.094,0.121L54.86,5.386
		c-0.095,0.095-0.122,0.216-0.122,0.378v8.166c0,0.16,0.027,0.281,0.122,0.377l0.404,0.391c0.027,0.039,0.094,0.08,0.094,0.121
		s-0.027,0.08-0.081,0.08h-2.115c-0.054,0-0.081-0.039-0.081-0.08s0.067-0.082,0.094-0.121l0.404-0.391
		c0.094-0.096,0.121-0.217,0.121-0.377V5.764z"/>
	<path fill="#A79273" d="M57.581,5.764c0-0.162-0.04-0.27-0.121-0.378l-0.337-0.391c-0.027-0.04-0.094-0.08-0.094-0.135
		c0-0.026,0.027-0.067,0.081-0.067h1.617c0.094,0,0.135,0.095,0.162,0.229l1.24,5.793h0.027V5.764c0-0.162-0.027-0.27-0.121-0.364
		l-0.377-0.404c-0.027-0.04-0.094-0.08-0.094-0.135c0-0.026,0.027-0.067,0.081-0.067h1.779c0.054,0,0.081,0.041,0.081,0.067
		c0,0.055-0.054,0.095-0.094,0.135L61.07,5.386c-0.081,0.108-0.121,0.216-0.121,0.378v8.986c0,0.096-0.041,0.148-0.135,0.148h-0.566
		c-0.121,0-0.229-0.135-0.27-0.336l-1.576-7.343h-0.027v6.71c0,0.16,0.04,0.27,0.134,0.363l0.364,0.404
		c0.041,0.039,0.095,0.08,0.095,0.135c0,0.027-0.027,0.066-0.081,0.066h-1.778c-0.054,0-0.081-0.039-0.081-0.066
		c0-0.055,0.067-0.096,0.094-0.135l0.337-0.391c0.081-0.107,0.121-0.217,0.121-0.377V5.764z"/>
	<path fill="#A79273" d="M67.656,5.441h-0.499c-0.081,0-0.121,0.067-0.148,0.147L66.309,8.27c-0.014,0.055-0.054,0.082-0.108,0.082
		s-0.067-0.027-0.067-0.096V4.848c0-0.027,0.027-0.055,0.067-0.055h3.948c0.041,0,0.067,0.027,0.067,0.055v3.408
		c0,0.068-0.014,0.096-0.067,0.096s-0.094-0.027-0.108-0.082L69.34,5.588c-0.027-0.08-0.067-0.147-0.148-0.147h-0.499v8.489
		c0,0.16,0.014,0.281,0.108,0.377l0.404,0.391c0.041,0.039,0.095,0.08,0.095,0.121s-0.014,0.08-0.081,0.08H67.13
		c-0.067,0-0.081-0.039-0.081-0.08s0.054-0.082,0.094-0.121l0.404-0.391c0.095-0.096,0.108-0.217,0.108-0.377V5.441z"/>
	<path fill="#A79273" d="M74.916,9.402V5.764c0-0.162-0.027-0.283-0.121-0.378l-0.404-0.391c-0.027-0.04-0.095-0.08-0.095-0.121
		c0-0.04,0.027-0.081,0.081-0.081h2.115c0.055,0,0.081,0.041,0.081,0.081c0,0.041-0.067,0.081-0.095,0.121l-0.404,0.391
		c-0.094,0.095-0.121,0.216-0.121,0.378v8.166c0,0.16,0.027,0.281,0.121,0.377l0.404,0.391c0.027,0.039,0.095,0.08,0.095,0.121
		s-0.026,0.08-0.081,0.08h-2.115c-0.054,0-0.081-0.039-0.081-0.08s0.067-0.082,0.095-0.121l0.404-0.391
		c0.094-0.096,0.121-0.217,0.121-0.377v-3.814h-1.375v3.814c0,0.16,0.027,0.281,0.122,0.377l0.403,0.391
		c0.027,0.039,0.095,0.08,0.095,0.121s-0.026,0.08-0.081,0.08h-2.115c-0.054,0-0.081-0.039-0.081-0.08s0.067-0.082,0.094-0.121
		l0.404-0.391c0.094-0.096,0.121-0.217,0.121-0.377V5.764c0-0.162-0.027-0.283-0.121-0.378l-0.404-0.391
		c-0.027-0.04-0.094-0.08-0.094-0.121c0-0.04,0.027-0.081,0.081-0.081h2.115c0.055,0,0.081,0.041,0.081,0.081
		c0,0.041-0.067,0.081-0.095,0.121l-0.403,0.391c-0.095,0.095-0.122,0.216-0.122,0.378v3.638H74.916z"/>
	<path fill="#A79273" d="M79.899,9.416h0.296c0.068,0,0.122-0.027,0.148-0.096l0.473-0.943c0.026-0.053,0.039-0.08,0.08-0.08
		s0.054,0.027,0.054,0.08v2.857c0,0.041-0.013,0.066-0.054,0.066c-0.054,0-0.067-0.039-0.094-0.094l-0.459-0.984
		c-0.026-0.066-0.08-0.094-0.148-0.094h-0.296v4.096h0.769c0.175,0,0.31-0.08,0.363-0.242l0.728-2.586
		c0.014-0.055,0.054-0.082,0.095-0.082c0.04,0,0.066,0.041,0.066,0.082v3.381c0,0.068-0.04,0.121-0.107,0.121h-3.489
		c-0.054,0-0.081-0.039-0.081-0.08s0.067-0.068,0.094-0.121l0.404-0.391c0.095-0.096,0.121-0.217,0.121-0.377V5.764
		c0-0.162-0.026-0.283-0.121-0.378l-0.404-0.391c-0.026-0.04-0.094-0.08-0.094-0.121c0-0.04,0.027-0.081,0.081-0.081h3.489
		c0.055,0,0.107,0.055,0.107,0.122V8.27c0,0.055-0.026,0.082-0.066,0.082c-0.055,0-0.095-0.041-0.108-0.096l-0.728-2.533
		c-0.054-0.175-0.175-0.256-0.35-0.256h-0.769V9.416z"/>
	<path fill="#A79273" d="M88.439,4.793c0.121,0,0.175,0.095,0.188,0.229l0.891,5.834h0.026l0.821-5.834
		c0.014-0.135,0.055-0.229,0.148-0.229h1.685c0.054,0,0.081,0.041,0.081,0.067c0,0.055-0.055,0.095-0.095,0.135l-0.337,0.391
		c-0.08,0.108-0.107,0.216-0.107,0.378v8.166c0,0.16,0.027,0.27,0.107,0.377l0.337,0.391c0.04,0.039,0.095,0.08,0.095,0.135
		c0,0.027-0.027,0.066-0.081,0.066h-1.886c-0.068,0-0.082-0.039-0.082-0.066c0-0.055,0.055-0.096,0.095-0.148l0.283-0.363
		c0.081-0.109,0.095-0.23,0.095-0.391V7.408h-0.027l-1.023,7.383c-0.014,0.068-0.041,0.107-0.108,0.107h-0.296
		c-0.041,0-0.055-0.053-0.068-0.121l-1.091-7.37h-0.027v6.522c0,0.16,0.014,0.281,0.095,0.391l0.283,0.363
		c0.04,0.053,0.094,0.094,0.094,0.148c0,0.027-0.027,0.066-0.08,0.066h-1.658c-0.054,0-0.08-0.039-0.08-0.066
		c0-0.055,0.066-0.096,0.094-0.135l0.337-0.391c0.081-0.107,0.121-0.217,0.121-0.377V5.764c0-0.162-0.04-0.27-0.121-0.378
		l-0.337-0.391c-0.027-0.04-0.094-0.08-0.094-0.135c0-0.026,0.026-0.067,0.08-0.067H88.439z"/>
	<path fill="#A79273" d="M96.44,12.648c-0.014-0.066-0.054-0.121-0.121-0.121h-0.997c-0.041,0-0.067,0.041-0.081,0.094l-0.202,1.482
		c-0.014,0.096,0.014,0.176,0.067,0.242l0.296,0.311c0.055,0.068,0.135,0.121,0.135,0.162s-0.026,0.08-0.094,0.08h-1.549
		c-0.055,0-0.082-0.039-0.082-0.08s0.055-0.094,0.095-0.135l0.378-0.377c0.08-0.082,0.094-0.217,0.107-0.338l1.227-9.053
		c0.013-0.067,0.04-0.122,0.107-0.122h0.498c0.067,0,0.107,0.067,0.121,0.148l1.28,9.041c0.014,0.135,0.054,0.283,0.148,0.363
		l0.391,0.352c0.04,0.039,0.081,0.08,0.081,0.121s-0.027,0.08-0.095,0.08h-1.94c-0.066,0-0.094-0.039-0.094-0.08
		s0.054-0.082,0.094-0.121l0.364-0.363c0.054-0.055,0.081-0.148,0.067-0.27L96.44,12.648z M96.252,11.814
		c0.04,0,0.067-0.041,0.054-0.096l-0.472-3.301h-0.027l-0.444,3.314c-0.013,0.055,0.014,0.082,0.04,0.082H96.252z"/>
	<path fill="#A79273" d="M100.399,5.764c0-0.162-0.013-0.283-0.121-0.378l-0.404-0.377c-0.054-0.04-0.095-0.094-0.095-0.148
		c0-0.026,0.027-0.067,0.068-0.067h2.142c0.04,0,0.067,0.041,0.067,0.067c0,0.055-0.04,0.108-0.08,0.148l-0.418,0.377
		c-0.095,0.095-0.121,0.216-0.121,0.378v3.921h0.026l1.321-3.962c0.053-0.147,0.026-0.27-0.082-0.363l-0.417-0.351
		c-0.054-0.054-0.095-0.094-0.095-0.148c0-0.04,0.041-0.067,0.095-0.067h1.967c0.054,0,0.095,0.027,0.095,0.067
		c0,0.055-0.055,0.108-0.107,0.162l-0.459,0.458c-0.121,0.121-0.215,0.297-0.297,0.553l-1.037,3.126l1.172,4.742
		c0.041,0.135,0.095,0.256,0.176,0.322l0.458,0.445c0.054,0.055,0.095,0.107,0.095,0.162c0,0.053-0.014,0.066-0.068,0.066h-2.007
		c-0.054,0-0.081-0.014-0.081-0.066c0-0.041,0.055-0.082,0.107-0.148l0.352-0.473c0.08-0.121,0.08-0.229,0.039-0.363l-0.754-3.086
		h-0.027l-0.471,1.443v1.725c0,0.16,0.026,0.281,0.121,0.377l0.418,0.377c0.04,0.041,0.08,0.094,0.08,0.148
		c0,0.027-0.027,0.066-0.067,0.066h-2.142c-0.041,0-0.068-0.039-0.068-0.066c0-0.055,0.041-0.107,0.082-0.148l0.417-0.377
		c0.095-0.096,0.121-0.217,0.121-0.377V5.764z"/>
	<path fill="#A79273" d="M106.528,5.764c0-0.162-0.026-0.283-0.121-0.378l-0.404-0.391c-0.026-0.04-0.095-0.08-0.095-0.121
		c0-0.04,0.027-0.081,0.082-0.081h2.115c0.053,0,0.08,0.041,0.08,0.081c0,0.041-0.067,0.081-0.094,0.121l-0.404,0.391
		c-0.095,0.095-0.121,0.216-0.121,0.378v8.166c0,0.16,0.026,0.281,0.121,0.377l0.404,0.391c0.026,0.039,0.094,0.08,0.094,0.121
		s-0.027,0.08-0.08,0.08h-2.115c-0.055,0-0.082-0.039-0.082-0.08s0.068-0.082,0.095-0.121l0.404-0.391
		c0.095-0.096,0.121-0.217,0.121-0.377V5.764z"/>
	<path fill="#A79273" d="M110.407,5.764c0-0.162-0.04-0.27-0.121-0.378l-0.337-0.391c-0.027-0.04-0.094-0.08-0.094-0.135
		c0-0.026,0.026-0.067,0.08-0.067h1.617c0.094,0,0.135,0.095,0.162,0.229l1.239,5.793h0.026V5.764c0-0.162-0.026-0.27-0.121-0.364
		l-0.377-0.404c-0.027-0.04-0.094-0.08-0.094-0.135c0-0.026,0.026-0.067,0.08-0.067h1.779c0.053,0,0.08,0.041,0.08,0.067
		c0,0.055-0.054,0.095-0.094,0.135l-0.338,0.391c-0.08,0.108-0.121,0.216-0.121,0.378v8.986c0,0.096-0.04,0.148-0.135,0.148h-0.565
		c-0.121,0-0.229-0.135-0.27-0.336l-1.576-7.343h-0.027v6.71c0,0.16,0.04,0.27,0.135,0.363l0.364,0.404
		c0.04,0.039,0.094,0.08,0.094,0.135c0,0.027-0.027,0.066-0.08,0.066h-1.779c-0.054,0-0.08-0.039-0.08-0.066
		c0-0.055,0.066-0.096,0.094-0.135l0.337-0.391c0.081-0.107,0.121-0.217,0.121-0.377V5.764z"/>
	<path fill="#A79273" d="M118.678,10.602c0-0.135-0.053-0.217-0.147-0.297l-0.378-0.324c-0.053-0.053-0.066-0.08-0.066-0.135
		c0-0.053,0.04-0.08,0.107-0.08h1.994c0.054,0,0.094,0.027,0.094,0.08c0,0.055-0.026,0.082-0.066,0.135l-0.391,0.324
		c-0.095,0.066-0.135,0.162-0.135,0.297v4.23c0,0.039-0.027,0.066-0.068,0.066c-0.054,0-0.107-0.027-0.135-0.053l-0.404-0.365
		c-0.053-0.039-0.08-0.053-0.135-0.053c-0.04,0-0.08,0.014-0.135,0.053c-0.282,0.256-0.552,0.418-0.848,0.418
		c-1.685,0-1.752-3.072-1.752-5.322c0-1.656,0.067-4.783,1.725-4.783c0.444,0,0.714,0.202,0.849,0.311
		c0.054,0.04,0.148,0.08,0.202,0.08c0.067,0,0.202-0.094,0.337-0.215c0.121-0.108,0.202-0.176,0.27-0.176s0.095,0.095,0.095,0.229
		v3.233c0,0.055-0.027,0.096-0.068,0.096c-0.054,0-0.094-0.055-0.121-0.135c-0.283-1.011-0.862-2.75-1.455-2.75
		c-0.566,0-0.728,1.28-0.728,4.123c0,3.881,0.161,4.635,0.647,4.635c0.417,0,0.713-0.512,0.713-1.791V10.602z"/>
</g>
<rect x="13.131" y="13.74" transform="matrix(-1 -0.0032 0.0032 -1 30.1428 27.9384)" fill-rule="evenodd" clip-rule="evenodd" fill="#A79273" width="3.927" height="0.41"/>
<rect x="13.13" y="5.75" fill-rule="evenodd" clip-rule="evenodd" fill="#A79273" width="3.927" height="0.412"/>
<rect x="9.537" y="9.584" fill-rule="evenodd" clip-rule="evenodd" fill="#A79273" width="7.521" height="0.411"/>
<rect x="125.432" y="13.74" transform="matrix(1 -0.0032 0.0032 1 -0.0444 0.4119)" fill-rule="evenodd" clip-rule="evenodd" fill="#A79273" width="3.927" height="0.41"/>
<rect x="125.431" y="5.75" fill-rule="evenodd" clip-rule="evenodd" fill="#A79273" width="3.928" height="0.412"/>
<rect x="125.431" y="9.584" fill-rule="evenodd" clip-rule="evenodd" fill="#A79273" width="7.521" height="0.411"/>
</svg>
